<svg xmlns="http://www.w3.org/2000/svg" xmlns:xlink="http://www.w3.org/1999/xlink" width="800" height="600" class="main-svg" viewBox="0 0 800 600"><rect width="800" height="600" x="0" y="0" fill="#F5F6F9" fill-opacity="1"/><defs id="defs-9ebe3c"><g class="clips"><clipPath id="clip9ebe3cxyplot" class="plotclip"><rect width="544" height="420"/></clipPath><clipPath id="clip9ebe3cx" class="axesclip"><rect width="544" height="600" x="80" y="0"/></clipPath><clipPath id="clip9ebe3cy" class="axesclip"><rect width="800" height="420" x="0" y="100"/></clipPath><clipPath id="clip9ebe3cxy" class="axesclip"><rect width="544" height="420" x="80" y="100"/></clipPath></g></defs><g class="bglayer"><rect width="544" height="420" x="80" y="100" fill="#F5F6F9" fill-opacity="1" stroke-width="0" class="bg"/></g><g class="cartesianlayer"><g class="subplot xy"><g class="gridlayer"><path stroke="#E1E5ED" stroke-opacity="1" stroke-width="1" d="M0,0v420" class="xgrid crisp" transform="translate(80,100) translate(51.81,0)"/><path stroke="#E1E5ED" stroke-opacity="1" stroke-width="1" d="M0,0v420" class="xgrid crisp" transform="translate(80,100) translate(129.52,0)"/><path stroke="#E1E5ED" stroke-opacity="1" stroke-width="1" d="M0,0v420" class="xgrid crisp" transform="translate(80,100) translate(207.24,0)"/><path stroke="#E1E5ED" stroke-opacity="1" stroke-width="1" d="M0,0v420" class="xgrid crisp" transform="translate(80,100) translate(284.95,0)"/><path stroke="#E1E5ED" stroke-opacity="1" stroke-width="1" d="M0,0v420" class="xgrid crisp" transform="translate(80,100) translate(362.67,0)"/><path stroke="#E1E5ED" stroke-opacity="1" stroke-width="1" d="M0,0v420" class="xgrid crisp" transform="translate(80,100) translate(440.38,0)"/><path stroke="#E1E5ED" stroke-opacity="1" stroke-width="1" d="M0,0v420" class="xgrid crisp" transform="translate(80,100) translate(518.1,0)"/><path stroke="#E1E5ED" stroke-opacity="1" stroke-width="1" d="M0,0h544" class="ygrid crisp" transform="translate(80,100) translate(0,340.2)"/><path stroke="#E1E5ED" stroke-opacity="1" stroke-width="1" d="M0,0h544" class="ygrid crisp" transform="translate(80,100) translate(0,260.4)"/><path stroke="#E1E5ED" stroke-opacity="1" stroke-width="1" d="M0,0h544" class="ygrid crisp" transform="translate(80,100) translate(0,180.6)"/><path stroke="#E1E5ED" stroke-opacity="1" stroke-width="1" d="M0,0h544" class="ygrid crisp" transform="translate(80,100) translate(0,100.8)"/><path stroke="#E1E5ED" stroke-opacity="1" stroke-width="1" d="M0,0h544" class="ygrid crisp" transform="translate(80,100) translate(0,21)"/></g><g class="zerolinelayer"><path stroke="#E1E5ED" stroke-opacity="1" stroke-width="1" d="M0,0h544" class="yzl zl crisp" transform="translate(80,100) translate(0,420)"/></g><path class="xlines-below"/><path class="ylines-below"/><g class="plot" clip-path="url(#clip9ebe3cxyplot)" transform="translate(80, 100)"><g class="scatterlayer"><g stroke-miterlimit="2" class="trace scatter tracec09485"><path fill="#F93" fill-opacity=".3" stroke-width="0" d="M544,420L0,420L0,21L544,21.05" class="js-fill js-tozero"/><path fill="none" stroke="#F93" stroke-opacity="1" stroke-width="1.3" d="M0,21L544,21.05" class="js-line" opacity="1" vector-effect="non-scaling-stroke"/></g><g stroke-miterlimit="2" class="trace scatter tracecfbd2d"><path fill="#3780BF" fill-opacity=".3" stroke-width="0" d="M544,420L0,420L0,396.18L25.9,396.76L51.81,395.57L103.62,393.96L129.52,393.92L181.33,394.57L207.24,393.85L233.14,394.42L259.05,393.08L284.95,393.51L310.86,388.68L336.76,385.8L362.67,385.43L388.57,384.3L414.48,365.93L440.38,307.06L466.29,260.6L492.19,244.1L518.1,244.36L544,245.65" class="js-fill js-tozero"/><path fill="none" stroke="#3780BF" stroke-opacity="1" stroke-width="1.3" d="M0,396.18L25.9,396.76L51.81,395.57L103.62,393.96L129.52,393.92L181.33,394.57L207.24,393.85L233.14,394.42L259.05,393.08L284.95,393.51L310.86,388.68L336.76,385.8L362.67,385.43L388.57,384.3L414.48,365.93L440.38,307.06L466.29,260.6L492.19,244.1L518.1,244.36L544,245.65" class="js-line" opacity="1" vector-effect="non-scaling-stroke"/></g></g></g><path fill="none" stroke="#000" stroke-opacity="0" stroke-width="1" d="M-1,420.5H544" class="xlines-above crisp" transform="translate(80,100)"/><path fill="none" stroke="#000" stroke-opacity="0" stroke-width="1" d="M-0.5,0V420" class="ylines-above crisp" transform="translate(80,100)"/><g class="xaxislayer-above"><g class="xtick"><text style="white-space:pre" x="0" y="433" fill="#4D5663" fill-opacity="1" font-family="TOBESTRIPPEDOpen\ SansTOBESTRIPPED, verdana, arial, sans-serif" font-size="12" text-anchor="middle" transform="translate(80,100) translate(51.81,0)"><tspan x="0" y="433" class="line" dy="0em">Apr 3</tspan><tspan x="0" y="433" class="line" dy="1.3em">2018</tspan></text></g><g class="xtick"><text style="white-space:pre" x="0" y="433" fill="#4D5663" fill-opacity="1" font-family="TOBESTRIPPEDOpen\ SansTOBESTRIPPED, verdana, arial, sans-serif" font-size="12" text-anchor="middle" transform="translate(80,100) translate(129.52,0)">Apr 6</text></g><g class="xtick"><text style="white-space:pre" x="0" y="433" fill="#4D5663" fill-opacity="1" font-family="TOBESTRIPPEDOpen\ SansTOBESTRIPPED, verdana, arial, sans-serif" font-size="12" text-anchor="middle" transform="translate(80,100) translate(207.24,0)">Apr 9</text></g><g class="xtick"><text style="white-space:pre" x="0" y="433" fill="#4D5663" fill-opacity="1" font-family="TOBESTRIPPEDOpen\ SansTOBESTRIPPED, verdana, arial, sans-serif" font-size="12" text-anchor="middle" transform="translate(80,100) translate(284.95,0)">Apr 12</text></g><g class="xtick"><text style="white-space:pre" x="0" y="433" fill="#4D5663" fill-opacity="1" font-family="TOBESTRIPPEDOpen\ SansTOBESTRIPPED, verdana, arial, sans-serif" font-size="12" text-anchor="middle" transform="translate(80,100) translate(362.67,0)">Apr 15</text></g><g class="xtick"><text style="white-space:pre" x="0" y="433" fill="#4D5663" fill-opacity="1" font-family="TOBESTRIPPEDOpen\ SansTOBESTRIPPED, verdana, arial, sans-serif" font-size="12" text-anchor="middle" transform="translate(80,100) translate(440.38,0)">Apr 18</text></g><g class="xtick"><text style="white-space:pre" x="0" y="433" fill="#4D5663" fill-opacity="1" font-family="TOBESTRIPPEDOpen\ SansTOBESTRIPPED, verdana, arial, sans-serif" font-size="12" text-anchor="middle" transform="translate(80,100) translate(518.1,0)">Apr 21</text></g></g><g class="yaxislayer-above"><g class="ytick"><text style="white-space:pre" x="-1" y="4.2" fill="#4D5663" fill-opacity="1" font-family="TOBESTRIPPEDOpen\ SansTOBESTRIPPED, verdana, arial, sans-serif" font-size="12" text-anchor="end" transform="translate(80,100) translate(0,420)">0</text></g><g class="ytick"><text style="white-space:pre" x="-1" y="4.2" fill="#4D5663" fill-opacity="1" font-family="TOBESTRIPPEDOpen\ SansTOBESTRIPPED, verdana, arial, sans-serif" font-size="12" text-anchor="end" transform="translate(80,100) translate(0,340.2)">20</text></g><g class="ytick"><text style="white-space:pre" x="-1" y="4.2" fill="#4D5663" fill-opacity="1" font-family="TOBESTRIPPEDOpen\ SansTOBESTRIPPED, verdana, arial, sans-serif" font-size="12" text-anchor="end" transform="translate(80,100) translate(0,260.4)">40</text></g><g class="ytick"><text style="white-space:pre" x="-1" y="4.2" fill="#4D5663" fill-opacity="1" font-family="TOBESTRIPPEDOpen\ SansTOBESTRIPPED, verdana, arial, sans-serif" font-size="12" text-anchor="end" transform="translate(80,100) translate(0,180.6)">60</text></g><g class="ytick"><text style="white-space:pre" x="-1" y="4.2" fill="#4D5663" fill-opacity="1" font-family="TOBESTRIPPEDOpen\ SansTOBESTRIPPED, verdana, arial, sans-serif" font-size="12" text-anchor="end" transform="translate(80,100) translate(0,100.8)">80</text></g><g class="ytick"><text style="white-space:pre" x="-1" y="4.2" fill="#4D5663" fill-opacity="1" font-family="TOBESTRIPPEDOpen\ SansTOBESTRIPPED, verdana, arial, sans-serif" font-size="12" text-anchor="end" transform="translate(80,100) translate(0,21)">100</text></g></g></g></g><defs id="topdefs-9ebe3c"><clipPath id="legend9ebe3c"><rect width="153" height="48" x="0" y="0"/></clipPath></defs><g class="infolayer"><g class="g-gtitle"><text x="400" y="50" fill="#4D5663" class="gtitle" font-family="TOBESTRIPPEDOpen\ SansTOBESTRIPPED, verdana, arial, sans-serif" font-size="17" font-weight="normal" opacity="1" text-anchor="middle" style="white-space:pre">Relative proportion of traffic in Germany</text></g><g class="legend" pointer-events="all" transform="translate(634.88, 100)"><rect width="153" height="48" x="0" y="0" fill="#F5F6F9" fill-opacity="1" stroke="#444" stroke-opacity="1" stroke-width="0" class="bg" shape-rendering="crispEdges"/><g class="scrollbox" clip-path="url(#legend9ebe3c)" transform="translate(0, 0)"><g class="groups"><g class="traces" opacity="1" transform="translate(0, 14.5)"><g class="layers"><g class="legendfill"><path fill="#F93" fill-opacity=".3" stroke-width="0" d="M5,0h30v6h-30z" class="js-fill"/></g><g class="legendlines"><path fill="none" stroke="#F93" stroke-opacity="1" stroke-width="1.3" d="M5,0h30" class="js-line"/></g></g><text x="40" y="4.68" fill="#4D5663" fill-opacity="1" class="legendtext user-select-none" font-family="TOBESTRIPPEDOpen\ SansTOBESTRIPPED, verdana, arial, sans-serif" font-size="12" text-anchor="start" style="white-space:pre">www.google.de</text><rect width="193" height="19" x="0" y="-9.5" fill="#000" fill-opacity="0" class="legendtoggle" cursor="pointer" pointer-events="all"/></g><g class="traces" opacity="1" transform="translate(0, 33.5)"><g class="layers"><g class="legendfill"><path fill="#3780BF" fill-opacity=".3" stroke-width="0" d="M5,0h30v6h-30z" class="js-fill"/></g><g class="legendlines"><path fill="none" stroke="#3780BF" stroke-opacity="1" stroke-width="1.3" d="M5,0h30" class="js-line"/></g></g><text x="40" y="4.68" fill="#4D5663" fill-opacity="1" class="legendtext user-select-none" font-family="TOBESTRIPPEDOpen\ SansTOBESTRIPPED, verdana, arial, sans-serif" font-size="12" text-anchor="start" style="white-space:pre">www.google.com</text><rect width="193" height="19" x="0" y="-9.5" fill="#000" fill-opacity="0" class="legendtoggle" cursor="pointer" pointer-events="all"/></g></g></g><rect width="0" height="0" fill="#808BA4" fill-opacity="1" class="scrollbar" rx="20" ry="2"/></g><g class="g-ytitle"><text x="42" y="310" fill="#4D5663" class="ytitle" font-family="TOBESTRIPPEDOpen\ SansTOBESTRIPPED, verdana, arial, sans-serif" font-size="14" font-weight="normal" opacity="1" text-anchor="middle" transform="rotate(-90,42,310) translate(0, 0)" style="white-space:pre">Percentage of traffic</text></g></g></svg>