<svg xmlns="http://www.w3.org/2000/svg" xmlns:xlink="http://www.w3.org/1999/xlink" width="800" height="200" class="main-svg" viewBox="0 0 800 200"><rect width="800" height="200" x="0" y="0" fill="#FFF" fill-opacity="1"/><defs id="defs-a63c77"><g class="clips"><clipPath id="clipa63c77xyplot" class="plotclip"><rect width="680" height="170"/></clipPath><clipPath id="clipa63c77x" class="axesclip"><rect width="680" height="200" x="60" y="0"/></clipPath><clipPath id="clipa63c77y" class="axesclip"><rect width="800" height="170" x="0" y="0"/></clipPath><clipPath id="clipa63c77xy" class="axesclip"><rect width="680" height="170" x="60" y="0"/></clipPath></g></defs><g class="bglayer"><rect width="690" height="180" x="55" y="-5" fill="#FFF" fill-opacity="1" stroke-width="0" class="bg"/></g><g class="cartesianlayer"><g class="subplot xy"><g class="gridlayer"><path stroke="#EEE" stroke-opacity="1" stroke-width="1" d="M0,0h680" class="ygrid crisp" transform="translate(60,0) translate(0,105.67)"/><path stroke="#EEE" stroke-opacity="1" stroke-width="1" d="M0,0h680" class="ygrid crisp" transform="translate(60,0) translate(0,41.34)"/></g><g class="zerolinelayer"><path stroke="#444" stroke-opacity="1" stroke-width="1" d="M0,0h680" class="yzl zl crisp" transform="translate(60,0) translate(0,170)"/></g><path class="xlines-below"/><path class="ylines-below"/><g class="plot" clip-path="url(#clipa63c77xyplot)" transform="translate(60, 0)"><g class="barlayer"><g class="trace bars" opacity="1"><g class="points"><g class="point"><path fill="#A069AB" fill-opacity="1" stroke="#222" stroke-opacity="1" stroke-width="2" d="M22.67,170V105.05H204V170Z" vector-effect="non-scaling-stroke"/></g><g class="point"><path fill="#9564C4" fill-opacity="1" stroke="#222" stroke-opacity="1" stroke-width="2" d="M249.33,170V40.75H430.67V170Z" vector-effect="non-scaling-stroke"/></g><g class="point"><path fill="#6564C4" fill-opacity="1" stroke="#222" stroke-opacity="1" stroke-width="2" d="M476,170V8.5H657.33V170Z" vector-effect="non-scaling-stroke"/></g></g></g></g></g><path fill="none" stroke="#000" stroke-opacity="0" stroke-width="1" d="M-6,175.5H680" class="xlines-above crisp" transform="translate(60,0)"/><path fill="none" stroke="#000" stroke-opacity="0" stroke-width="1" d="M-5.5,0V175" class="ylines-above crisp" transform="translate(60,0)"/><g class="xaxislayer-above"><g class="xtick"><text style="white-space:pre" x="0" y="188" fill="#444" fill-opacity="1" font-family="TOBESTRIPPEDOpen\ SansTOBESTRIPPED, verdana, arial, sans-serif" font-size="12" text-anchor="middle" transform="translate(60,0) translate(113.33,0)">Jan 2018</text></g><g class="xtick"><text style="white-space:pre" x="0" y="188" fill="#444" fill-opacity="1" font-family="TOBESTRIPPEDOpen\ SansTOBESTRIPPED, verdana, arial, sans-serif" font-size="12" text-anchor="middle" transform="translate(60,0) translate(340,0)">Feb 2018</text></g><g class="xtick"><text style="white-space:pre" x="0" y="188" fill="#444" fill-opacity="1" font-family="TOBESTRIPPEDOpen\ SansTOBESTRIPPED, verdana, arial, sans-serif" font-size="12" text-anchor="middle" transform="translate(60,0) translate(566.67,0)">Mar 2018</text></g></g><g class="yaxislayer-above"><g class="ytick"><text style="white-space:pre" x="-6" y="4.2" fill="#444" fill-opacity="1" font-family="TOBESTRIPPEDOpen\ SansTOBESTRIPPED, verdana, arial, sans-serif" font-size="12" text-anchor="end" transform="translate(60,0) translate(0,170)">0</text></g><g class="ytick"><text style="white-space:pre" x="-6" y="4.2" fill="#444" fill-opacity="1" font-family="TOBESTRIPPEDOpen\ SansTOBESTRIPPED, verdana, arial, sans-serif" font-size="12" text-anchor="end" transform="translate(60,0) translate(0,105.67)">10</text></g><g class="ytick"><text style="white-space:pre" x="-6" y="4.2" fill="#444" fill-opacity="1" font-family="TOBESTRIPPEDOpen\ SansTOBESTRIPPED, verdana, arial, sans-serif" font-size="12" text-anchor="end" transform="translate(60,0) translate(0,41.34)">20</text></g></g></g></g></svg>