<svg xmlns="http://www.w3.org/2000/svg" xmlns:xlink="http://www.w3.org/1999/xlink" width="800" height="600" class="main-svg" viewBox="0 0 800 600"><rect width="800" height="600" x="0" y="0" fill="#FFF" fill-opacity="1"/><defs id="defs-a27a81"><g class="clips"><clipPath id="clipa27a81xyplot" class="plotclip"><rect width="680" height="558"/></clipPath><clipPath id="clipa27a81x" class="axesclip"><rect width="680" height="600" x="60" y="0"/></clipPath><clipPath id="clipa27a81y" class="axesclip"><rect width="800" height="558" x="0" y="12"/></clipPath><clipPath id="clipa27a81xy" class="axesclip"><rect width="680" height="558" x="60" y="12"/></clipPath></g></defs><g class="bglayer"><rect width="690" height="568" x="55" y="7" fill="#FFF" fill-opacity="1" stroke-width="0" class="bg"/></g><g class="cartesianlayer"><g class="subplot xy"><g class="gridlayer"><path stroke="#EEE" stroke-opacity="1" stroke-width="1" d="M0,0v558" class="xgrid crisp" transform="translate(60,12) translate(37.75,0)"/><path stroke="#EEE" stroke-opacity="1" stroke-width="1" d="M0,0v558" class="xgrid crisp" transform="translate(60,12) translate(159.05,0)"/><path stroke="#EEE" stroke-opacity="1" stroke-width="1" d="M0,0v558" class="xgrid crisp" transform="translate(60,12) translate(282.33,0)"/><path stroke="#EEE" stroke-opacity="1" stroke-width="1" d="M0,0v558" class="xgrid crisp" transform="translate(60,12) translate(403.63,0)"/><path stroke="#EEE" stroke-opacity="1" stroke-width="1" d="M0,0v558" class="xgrid crisp" transform="translate(60,12) translate(524.93,0)"/><path stroke="#EEE" stroke-opacity="1" stroke-width="1" d="M0,0v558" class="xgrid crisp" transform="translate(60,12) translate(642.25,0)"/><path stroke="#EEE" stroke-opacity="1" stroke-width="1" d="M0,0h680" class="ygrid crisp" transform="translate(60,12) translate(0,525.75)"/><path stroke="#EEE" stroke-opacity="1" stroke-width="1" d="M0,0h680" class="ygrid crisp" transform="translate(60,12) translate(0,433.68)"/><path stroke="#EEE" stroke-opacity="1" stroke-width="1" d="M0,0h680" class="ygrid crisp" transform="translate(60,12) translate(0,341.61)"/><path stroke="#EEE" stroke-opacity="1" stroke-width="1" d="M0,0h680" class="ygrid crisp" transform="translate(60,12) translate(0,249.54)"/><path stroke="#EEE" stroke-opacity="1" stroke-width="1" d="M0,0h680" class="ygrid crisp" transform="translate(60,12) translate(0,157.47)"/><path stroke="#EEE" stroke-opacity="1" stroke-width="1" d="M0,0h680" class="ygrid crisp" transform="translate(60,12) translate(0,65.4)"/></g><path class="xlines-below"/><path class="ylines-below"/><g class="plot" clip-path="url(#clipa27a81xyplot)" transform="translate(60, 12)"><g class="scatterlayer"><g stroke-miterlimit="2" class="trace scatter trace98e4a3" opacity="1"><path fill="none" stroke="#9EBCDA" stroke-opacity="1" stroke-width="4" d="M37.75,525.75L99.39,474.19L159.05,446.57L220.69,424.47L282.33,376.6L403.63,332.4L463.29,321.35L524.93,302.94L586.57,273.48L642.25,253.22" class="js-line" opacity="1" vector-effect="non-scaling-stroke"/><g class="points"><path fill="#9EBCDA" fill-opacity="1" stroke-width="0" d="M3,0A3,3 0 1,1 0,-3A3,3 0 0,1 3,0Z" class="point" opacity="1" transform="translate(37.75,525.75)"/><path fill="#9EBCDA" fill-opacity="1" stroke-width="0" d="M3,0A3,3 0 1,1 0,-3A3,3 0 0,1 3,0Z" class="point" opacity="1" transform="translate(99.39,474.19)"/><path fill="#9EBCDA" fill-opacity="1" stroke-width="0" d="M3,0A3,3 0 1,1 0,-3A3,3 0 0,1 3,0Z" class="point" opacity="1" transform="translate(159.05,446.57)"/><path fill="#9EBCDA" fill-opacity="1" stroke-width="0" d="M3,0A3,3 0 1,1 0,-3A3,3 0 0,1 3,0Z" class="point" opacity="1" transform="translate(220.69,424.47)"/><path fill="#9EBCDA" fill-opacity="1" stroke-width="0" d="M3,0A3,3 0 1,1 0,-3A3,3 0 0,1 3,0Z" class="point" opacity="1" transform="translate(282.33,376.6)"/><path fill="#9EBCDA" fill-opacity="1" stroke-width="0" d="M3,0A3,3 0 1,1 0,-3A3,3 0 0,1 3,0Z" class="point" opacity="1" transform="translate(341.99,354.5)"/><path fill="#9EBCDA" fill-opacity="1" stroke-width="0" d="M3,0A3,3 0 1,1 0,-3A3,3 0 0,1 3,0Z" class="point" opacity="1" transform="translate(403.63,332.4)"/><path fill="#9EBCDA" fill-opacity="1" stroke-width="0" d="M3,0A3,3 0 1,1 0,-3A3,3 0 0,1 3,0Z" class="point" opacity="1" transform="translate(463.29,321.35)"/><path fill="#9EBCDA" fill-opacity="1" stroke-width="0" d="M3,0A3,3 0 1,1 0,-3A3,3 0 0,1 3,0Z" class="point" opacity="1" transform="translate(524.93,302.94)"/><path fill="#9EBCDA" fill-opacity="1" stroke-width="0" d="M3,0A3,3 0 1,1 0,-3A3,3 0 0,1 3,0Z" class="point" opacity="1" transform="translate(586.57,273.48)"/><path fill="#9EBCDA" fill-opacity="1" stroke-width="0" d="M3,0A3,3 0 1,1 0,-3A3,3 0 0,1 3,0Z" class="point" opacity="1" transform="translate(642.25,253.22)"/></g></g><g stroke-miterlimit="2" class="trace scatter trace3df2a8" opacity="1"><path fill="none" stroke="#A069AB" stroke-opacity="1" stroke-width="4" d="M37.75,525.75L99.39,459.46L159.05,431.84L220.69,409.74L282.33,345.29L341.99,301.1L403.63,266.11L463.29,258.74L524.93,205.34L586.57,102.22L642.25,32.25" class="js-line" opacity="1" vector-effect="non-scaling-stroke"/><g class="points"><path fill="#A069AB" fill-opacity="1" stroke-width="0" d="M3,0A3,3 0 1,1 0,-3A3,3 0 0,1 3,0Z" class="point" opacity="1" transform="translate(37.75,525.75)"/><path fill="#A069AB" fill-opacity="1" stroke-width="0" d="M3,0A3,3 0 1,1 0,-3A3,3 0 0,1 3,0Z" class="point" opacity="1" transform="translate(99.39,459.46)"/><path fill="#A069AB" fill-opacity="1" stroke-width="0" d="M3,0A3,3 0 1,1 0,-3A3,3 0 0,1 3,0Z" class="point" opacity="1" transform="translate(159.05,431.84)"/><path fill="#A069AB" fill-opacity="1" stroke-width="0" d="M3,0A3,3 0 1,1 0,-3A3,3 0 0,1 3,0Z" class="point" opacity="1" transform="translate(220.69,409.74)"/><path fill="#A069AB" fill-opacity="1" stroke-width="0" d="M3,0A3,3 0 1,1 0,-3A3,3 0 0,1 3,0Z" class="point" opacity="1" transform="translate(282.33,345.29)"/><path fill="#A069AB" fill-opacity="1" stroke-width="0" d="M3,0A3,3 0 1,1 0,-3A3,3 0 0,1 3,0Z" class="point" opacity="1" transform="translate(341.99,301.1)"/><path fill="#A069AB" fill-opacity="1" stroke-width="0" d="M3,0A3,3 0 1,1 0,-3A3,3 0 0,1 3,0Z" class="point" opacity="1" transform="translate(403.63,266.11)"/><path fill="#A069AB" fill-opacity="1" stroke-width="0" d="M3,0A3,3 0 1,1 0,-3A3,3 0 0,1 3,0Z" class="point" opacity="1" transform="translate(463.29,258.74)"/><path fill="#A069AB" fill-opacity="1" stroke-width="0" d="M3,0A3,3 0 1,1 0,-3A3,3 0 0,1 3,0Z" class="point" opacity="1" transform="translate(524.93,205.34)"/><path fill="#A069AB" fill-opacity="1" stroke-width="0" d="M3,0A3,3 0 1,1 0,-3A3,3 0 0,1 3,0Z" class="point" opacity="1" transform="translate(586.57,102.22)"/><path fill="#A069AB" fill-opacity="1" stroke-width="0" d="M3,0A3,3 0 1,1 0,-3A3,3 0 0,1 3,0Z" class="point" opacity="1" transform="translate(642.25,32.25)"/></g></g></g></g><path fill="none" stroke="#000" stroke-opacity="0" stroke-width="1" d="M-6,563.5H680" class="xlines-above crisp" transform="translate(60,12)"/><path fill="none" stroke="#000" stroke-opacity="0" stroke-width="1" d="M-5.5,0V563" class="ylines-above crisp" transform="translate(60,12)"/><g class="xaxislayer-above"><g class="xtick"><text style="white-space:pre" x="0" y="576" fill="#444" fill-opacity="1" font-family="TOBESTRIPPEDOpen\ SansTOBESTRIPPED, verdana, arial, sans-serif" font-size="12" text-anchor="middle" transform="translate(60,12) translate(37.75,0)">May 2017</text></g><g class="xtick"><text style="white-space:pre" x="0" y="576" fill="#444" fill-opacity="1" font-family="TOBESTRIPPEDOpen\ SansTOBESTRIPPED, verdana, arial, sans-serif" font-size="12" text-anchor="middle" transform="translate(60,12) translate(159.05,0)">Jul 2017</text></g><g class="xtick"><text style="white-space:pre" x="0" y="576" fill="#444" fill-opacity="1" font-family="TOBESTRIPPEDOpen\ SansTOBESTRIPPED, verdana, arial, sans-serif" font-size="12" text-anchor="middle" transform="translate(60,12) translate(282.33,0)">Sep 2017</text></g><g class="xtick"><text style="white-space:pre" x="0" y="576" fill="#444" fill-opacity="1" font-family="TOBESTRIPPEDOpen\ SansTOBESTRIPPED, verdana, arial, sans-serif" font-size="12" text-anchor="middle" transform="translate(60,12) translate(403.63,0)">Nov 2017</text></g><g class="xtick"><text style="white-space:pre" x="0" y="576" fill="#444" fill-opacity="1" font-family="TOBESTRIPPEDOpen\ SansTOBESTRIPPED, verdana, arial, sans-serif" font-size="12" text-anchor="middle" transform="translate(60,12) translate(524.93,0)">Jan 2018</text></g><g class="xtick"><text style="white-space:pre" x="0" y="576" fill="#444" fill-opacity="1" font-family="TOBESTRIPPEDOpen\ SansTOBESTRIPPED, verdana, arial, sans-serif" font-size="12" text-anchor="middle" transform="translate(60,12) translate(642.25,0)">Mar 2018</text></g></g><g class="yaxislayer-above"><g class="ytick"><text style="white-space:pre" x="-6" y="4.2" fill="#444" fill-opacity="1" font-family="TOBESTRIPPEDOpen\ SansTOBESTRIPPED, verdana, arial, sans-serif" font-size="12" text-anchor="end" transform="translate(60,12) translate(0,525.75)">600</text></g><g class="ytick"><text style="white-space:pre" x="-6" y="4.2" fill="#444" fill-opacity="1" font-family="TOBESTRIPPEDOpen\ SansTOBESTRIPPED, verdana, arial, sans-serif" font-size="12" text-anchor="end" transform="translate(60,12) translate(0,433.68)">650</text></g><g class="ytick"><text style="white-space:pre" x="-6" y="4.2" fill="#444" fill-opacity="1" font-family="TOBESTRIPPEDOpen\ SansTOBESTRIPPED, verdana, arial, sans-serif" font-size="12" text-anchor="end" transform="translate(60,12) translate(0,341.61)">700</text></g><g class="ytick"><text style="white-space:pre" x="-6" y="4.2" fill="#444" fill-opacity="1" font-family="TOBESTRIPPEDOpen\ SansTOBESTRIPPED, verdana, arial, sans-serif" font-size="12" text-anchor="end" transform="translate(60,12) translate(0,249.54)">750</text></g><g class="ytick"><text style="white-space:pre" x="-6" y="4.2" fill="#444" fill-opacity="1" font-family="TOBESTRIPPEDOpen\ SansTOBESTRIPPED, verdana, arial, sans-serif" font-size="12" text-anchor="end" transform="translate(60,12) translate(0,157.47)">800</text></g><g class="ytick"><text style="white-space:pre" x="-6" y="4.2" fill="#444" fill-opacity="1" font-family="TOBESTRIPPEDOpen\ SansTOBESTRIPPED, verdana, arial, sans-serif" font-size="12" text-anchor="end" transform="translate(60,12) translate(0,65.4)">850</text></g></g></g></g><defs id="topdefs-a27a81"><clipPath id="legenda27a81"><rect width="202" height="29" x="0" y="0"/></clipPath></defs><g class="infolayer"><g class="legend" pointer-events="all" transform="translate(94, 12)"><rect width="202" height="29" x="0" y="0" fill="#E2E2E2" fill-opacity="1" stroke="#444" stroke-opacity="1" stroke-width="0" class="bg" shape-rendering="crispEdges"/><g class="scrollbox" clip-path="url(#legenda27a81)" transform="translate(0, 0)"><g class="groups"><g class="traces" opacity="1" transform="translate(0, 14.5)"><g class="layers" opacity="1"><g class="legendlines"><path fill="none" stroke="#9EBCDA" stroke-opacity="1" stroke-width="4" d="M5,0h30" class="js-line"/></g><g class="legendsymbols"><g class="legendpoints"><path fill="#9EBCDA" fill-opacity="1" stroke-width="0" d="M3,0A3,3 0 1,1 0,-3A3,3 0 0,1 3,0Z" class="scatterpts" opacity="1" transform="translate(20,0)"/></g></g></g><text x="40" y="4.68" fill="#444" fill-opacity="1" class="legendtext user-select-none" font-family="TOBESTRIPPEDOpen\ SansTOBESTRIPPED, verdana, arial, sans-serif" font-size="12" text-anchor="start" style="white-space:pre">Sites</text><rect width="202" height="19" x="0" y="-9.5" fill="#000" fill-opacity="0" class="legendtoggle" cursor="pointer" pointer-events="all"/></g><g class="traces" opacity="1" transform="translate(100.58332824707031, 14.5)"><g class="layers" opacity="1"><g class="legendlines"><path fill="none" stroke="#A069AB" stroke-opacity="1" stroke-width="4" d="M5,0h30" class="js-line"/></g><g class="legendsymbols"><g class="legendpoints"><path fill="#A069AB" fill-opacity="1" stroke-width="0" d="M3,0A3,3 0 1,1 0,-3A3,3 0 0,1 3,0Z" class="scatterpts" opacity="1" transform="translate(20,0)"/></g></g></g><text x="40" y="4.68" fill="#444" fill-opacity="1" class="legendtext user-select-none" font-family="TOBESTRIPPEDOpen\ SansTOBESTRIPPED, verdana, arial, sans-serif" font-size="12" text-anchor="start" style="white-space:pre">Trackers</text><rect width="202" height="19" x="0" y="-9.5" fill="#000" fill-opacity="0" class="legendtoggle" cursor="pointer" pointer-events="all"/></g></g></g><rect width="0" height="0" fill="#808BA4" fill-opacity="1" class="scrollbar" rx="20" ry="2"/></g></g></svg>