<svg xmlns="http://www.w3.org/2000/svg" xmlns:xlink="http://www.w3.org/1999/xlink" width="800" height="600" class="main-svg" viewBox="0 0 800 600"><rect width="800" height="600" x="0" y="0" fill="#FFF" fill-opacity="1"/><defs id="defs-23a892"><g class="clips"><clipPath id="clip23a892xyplot" class="plotclip"><rect width="540" height="560"/></clipPath><clipPath id="clip23a892x" class="axesclip"><rect width="540" height="600" x="200" y="0"/></clipPath><clipPath id="clip23a892y" class="axesclip"><rect width="800" height="560" x="0" y="0"/></clipPath><clipPath id="clip23a892xy" class="axesclip"><rect width="540" height="560" x="200" y="0"/></clipPath></g></defs><g class="bglayer"><rect width="550" height="570" x="195" y="-5" fill="#FFF" fill-opacity="1" stroke-width="0" class="bg"/></g><g class="cartesianlayer"><g class="subplot xy"><g class="gridlayer"><path stroke="#EEE" stroke-opacity="1" stroke-width="1" d="M0,0v560" class="xgrid crisp" transform="translate(200,0) translate(118.21,0)"/><path stroke="#EEE" stroke-opacity="1" stroke-width="1" d="M0,0v560" class="xgrid crisp" transform="translate(200,0) translate(236.41,0)"/><path stroke="#EEE" stroke-opacity="1" stroke-width="1" d="M0,0v560" class="xgrid crisp" transform="translate(200,0) translate(354.62,0)"/><path stroke="#EEE" stroke-opacity="1" stroke-width="1" d="M0,0v560" class="xgrid crisp" transform="translate(200,0) translate(472.82,0)"/></g><g class="zerolinelayer"><path stroke="#444" stroke-opacity="1" stroke-width="1" d="M0,0v560" class="xzl zl crisp" transform="translate(200,0) translate(0,0)"/></g><path class="xlines-below"/><path class="ylines-below"/><g class="plot" clip-path="url(#clip23a892xyplot)" transform="translate(200, 0)"><g class="barlayer"><g class="trace bars" opacity="1"><g class="points"><g class="point"><path fill="#9EBCDA" fill-opacity="1" stroke="#333" stroke-opacity="1" stroke-width="2" d="M0,554.4V509.6H148.57V554.4Z" vector-effect="non-scaling-stroke"/></g><g class="point"><path fill="#97ADD6" fill-opacity="1" stroke="#333" stroke-opacity="1" stroke-width="2" d="M0,498.4V453.6H191.22V498.4Z" vector-effect="non-scaling-stroke"/></g><g class="point"><path fill="#919ED1" fill-opacity="1" stroke="#333" stroke-opacity="1" stroke-width="2" d="M0,442.4V397.6H195.94V442.4Z" vector-effect="non-scaling-stroke"/></g><g class="point"><path fill="#8A8ECC" fill-opacity="1" stroke="#333" stroke-opacity="1" stroke-width="2" d="M0,386.4V341.6H251.2V386.4Z" vector-effect="non-scaling-stroke"/></g><g class="point"><path fill="#8B84C7" fill-opacity="1" stroke="#333" stroke-opacity="1" stroke-width="2" d="M0,330.4V285.6H310.56V330.4Z" vector-effect="non-scaling-stroke"/></g><g class="point"><path fill="#8F7FC2" fill-opacity="1" stroke="#333" stroke-opacity="1" stroke-width="2" d="M0,274.4V229.6H351.88V274.4Z" vector-effect="non-scaling-stroke"/></g><g class="point"><path fill="#9379BD" fill-opacity="1" stroke="#333" stroke-opacity="1" stroke-width="2" d="M0,218.4V173.6H387.73V218.4Z" vector-effect="non-scaling-stroke"/></g><g class="point"><path fill="#9873B7" fill-opacity="1" stroke="#333" stroke-opacity="1" stroke-width="2" d="M0,162.4V117.6H391.44V162.4Z" vector-effect="non-scaling-stroke"/></g><g class="point"><path fill="#9C6EB1" fill-opacity="1" stroke="#333" stroke-opacity="1" stroke-width="2" d="M0,106.4V61.6H420.95V106.4Z" vector-effect="non-scaling-stroke"/></g><g class="point"><path fill="#A069AB" fill-opacity="1" stroke="#333" stroke-opacity="1" stroke-width="2" d="M0,50.4V5.6H513V50.4Z" vector-effect="non-scaling-stroke"/></g></g></g></g></g><path fill="none" stroke="#000" stroke-opacity="0" stroke-width="1" d="M-6,565.5H540" class="xlines-above crisp" transform="translate(200,0)"/><path fill="none" stroke="#000" stroke-opacity="0" stroke-width="1" d="M-5.5,0V565" class="ylines-above crisp" transform="translate(200,0)"/><g class="xaxislayer-above"><g class="xtick"><text style="white-space:pre" x="0" y="578" fill="#444" fill-opacity="1" font-family="TOBESTRIPPEDOpen\ SansTOBESTRIPPED, verdana, arial, sans-serif" font-size="12" text-anchor="middle" transform="translate(200,0) translate(0,0)">0</text></g><g class="xtick"><text style="white-space:pre" x="0" y="578" fill="#444" fill-opacity="1" font-family="TOBESTRIPPEDOpen\ SansTOBESTRIPPED, verdana, arial, sans-serif" font-size="12" text-anchor="middle" transform="translate(200,0) translate(118.21,0)">20</text></g><g class="xtick"><text style="white-space:pre" x="0" y="578" fill="#444" fill-opacity="1" font-family="TOBESTRIPPEDOpen\ SansTOBESTRIPPED, verdana, arial, sans-serif" font-size="12" text-anchor="middle" transform="translate(200,0) translate(236.41,0)">40</text></g><g class="xtick"><text style="white-space:pre" x="0" y="578" fill="#444" fill-opacity="1" font-family="TOBESTRIPPEDOpen\ SansTOBESTRIPPED, verdana, arial, sans-serif" font-size="12" text-anchor="middle" transform="translate(200,0) translate(354.62,0)">60</text></g><g class="xtick"><text style="white-space:pre" x="0" y="578" fill="#444" fill-opacity="1" font-family="TOBESTRIPPEDOpen\ SansTOBESTRIPPED, verdana, arial, sans-serif" font-size="12" text-anchor="middle" transform="translate(200,0) translate(472.82,0)">80</text></g></g><g class="yaxislayer-above"><g class="ytick"><text style="white-space:pre" x="-6" y="4.2" fill="#444" fill-opacity="1" font-family="TOBESTRIPPEDOpen\ SansTOBESTRIPPED, verdana, arial, sans-serif" font-size="12" text-anchor="end" transform="translate(200,0) translate(0,532)">Twitter</text></g><g class="ytick"><text style="white-space:pre" x="-6" y="4.2" fill="#444" fill-opacity="1" font-family="TOBESTRIPPEDOpen\ SansTOBESTRIPPED, verdana, arial, sans-serif" font-size="12" text-anchor="end" transform="translate(200,0) translate(0,476)">YouTube</text></g><g class="ytick"><text style="white-space:pre" x="-6" y="4.2" fill="#444" fill-opacity="1" font-family="TOBESTRIPPEDOpen\ SansTOBESTRIPPED, verdana, arial, sans-serif" font-size="12" text-anchor="end" transform="translate(200,0) translate(0,420)">Google Tag Manager</text></g><g class="ytick"><text style="white-space:pre" x="-6" y="4.2" fill="#444" fill-opacity="1" font-family="TOBESTRIPPEDOpen\ SansTOBESTRIPPED, verdana, arial, sans-serif" font-size="12" text-anchor="end" transform="translate(200,0) translate(0,364)">Google APIs</text></g><g class="ytick"><text style="white-space:pre" x="-6" y="4.2" fill="#444" fill-opacity="1" font-family="TOBESTRIPPEDOpen\ SansTOBESTRIPPED, verdana, arial, sans-serif" font-size="12" text-anchor="end" transform="translate(200,0) translate(0,308)">DoubleClick</text></g><g class="ytick"><text style="white-space:pre" x="-6" y="4.2" fill="#444" fill-opacity="1" font-family="TOBESTRIPPEDOpen\ SansTOBESTRIPPED, verdana, arial, sans-serif" font-size="12" text-anchor="end" transform="translate(200,0) translate(0,252)">Facebook</text></g><g class="ytick"><text style="white-space:pre" x="-6" y="4.2" fill="#444" fill-opacity="1" font-family="TOBESTRIPPEDOpen\ SansTOBESTRIPPED, verdana, arial, sans-serif" font-size="12" text-anchor="end" transform="translate(200,0) translate(0,196)">Google Fonts</text></g><g class="ytick"><text style="white-space:pre" x="-6" y="4.2" fill="#444" fill-opacity="1" font-family="TOBESTRIPPEDOpen\ SansTOBESTRIPPED, verdana, arial, sans-serif" font-size="12" text-anchor="end" transform="translate(200,0) translate(0,140)">Google</text></g><g class="ytick"><text style="white-space:pre" x="-6" y="4.2" fill="#444" fill-opacity="1" font-family="TOBESTRIPPEDOpen\ SansTOBESTRIPPED, verdana, arial, sans-serif" font-size="12" text-anchor="end" transform="translate(200,0) translate(0,84)">Google Static</text></g><g class="ytick"><text style="white-space:pre" x="-6" y="4.2" fill="#444" fill-opacity="1" font-family="TOBESTRIPPEDOpen\ SansTOBESTRIPPED, verdana, arial, sans-serif" font-size="12" text-anchor="end" transform="translate(200,0) translate(0,28)">Google Analytics</text></g></g></g></g></svg>