<svg xmlns="http://www.w3.org/2000/svg" xmlns:xlink="http://www.w3.org/1999/xlink" width="800" height="600" class="main-svg" viewBox="0 0 800 600"><rect width="800" height="600" x="0" y="0" fill="#F5F6F9" fill-opacity="1"/><defs id="defs-41731f"><g class="clips"><clipPath id="clip41731fxyplot" class="plotclip"><rect width="584" height="178.5"/></clipPath><clipPath id="clip41731fxy2plot" class="plotclip"><rect width="584" height="178.5"/></clipPath><clipPath id="clip41731fx" class="axesclip"><rect width="584" height="600" x="80" y="0"/></clipPath><clipPath id="clip41731fy" class="axesclip"><rect width="800" height="178.5" x="0" y="100"/></clipPath><clipPath id="clip41731fxy" class="axesclip"><rect width="584" height="178.5" x="80" y="100"/></clipPath><clipPath id="clip41731fy2" class="axesclip"><rect width="800" height="178.5" x="0" y="341.5"/></clipPath><clipPath id="clip41731fxy2" class="axesclip"><rect width="584" height="178.5" x="80" y="341.5"/></clipPath></g></defs><g class="bglayer"><rect width="584" height="178.5" x="80" y="100" fill="#F5F6F9" fill-opacity="1" stroke-width="0" class="bg"/><rect width="584" height="178.5" x="80" y="341.5" fill="#F5F6F9" fill-opacity="1" stroke-width="0" class="bg"/></g><g class="cartesianlayer"><g class="subplot xy"><g class="gridlayer"><g class="x"><path stroke="#E1E5ED" stroke-opacity="1" stroke-width="1" d="M0,100v178.50000000000003" class="xgrid crisp" transform="translate(186.34,0)"/><path stroke="#E1E5ED" stroke-opacity="1" stroke-width="1" d="M0,100v178.50000000000003" class="xgrid crisp" transform="translate(294.41999999999996,0)"/><path stroke="#E1E5ED" stroke-opacity="1" stroke-width="1" d="M0,100v178.50000000000003" class="xgrid crisp" transform="translate(400.76,0)"/><path stroke="#E1E5ED" stroke-opacity="1" stroke-width="1" d="M0,100v178.50000000000003" class="xgrid crisp" transform="translate(507.1,0)"/><path stroke="#E1E5ED" stroke-opacity="1" stroke-width="1" d="M0,100v178.50000000000003" class="xgrid crisp" transform="translate(609.96,0)"/></g><g class="y"><path stroke="#E1E5ED" stroke-opacity="1" stroke-width="1" d="M80,0h584" class="ygrid crisp" transform="translate(0,224.73000000000002)"/><path stroke="#E1E5ED" stroke-opacity="1" stroke-width="1" d="M80,0h584" class="ygrid crisp" transform="translate(0,170.95999999999998)"/><path stroke="#E1E5ED" stroke-opacity="1" stroke-width="1" d="M80,0h584" class="ygrid crisp" transform="translate(0,117.19)"/></g></g><g class="zerolinelayer"><path stroke="#E1E5ED" stroke-opacity="1" stroke-width="1" d="M80,0h584" class="yzl zl crisp" transform="translate(0,278.5)"/></g><path class="xlines-below"/><path class="ylines-below"/><g class="plot" clip-path="url(#clip41731fxyplot)" transform="translate(80, 100)"><g class="scatterlayer"><g stroke-miterlimit="2" class="trace scatter trace0a8914"><path fill="#F93" fill-opacity=".3" stroke-width="0" d="M584,178.5L0,178.5L0,9.96L54.04,8.93L106.34,14.04L160.38,16.68L214.42,18.27L266.72,24.61L320.76,23.93L373.06,26.67L427.1,25.71L481.15,23.66L529.96,24.91L584,24.16" class="js-fill js-tozero"/><path fill="none" stroke="#F93" stroke-opacity="1" stroke-width="1.3" d="M0,9.96L54.04,8.93L106.34,14.04L160.38,16.68L214.42,18.27L266.72,24.61L320.76,23.93L373.06,26.67L427.1,25.71L481.15,23.66L529.96,24.91L584,24.16" class="js-line" opacity="1" vector-effect="non-scaling-stroke"/></g></g></g><path fill="none" d="M0,0" class="xlines-above crisp"/><path fill="none" d="M0,0" class="ylines-above crisp"/><g class="yaxislayer-above"><g class="ytick"><text style="white-space:pre" x="80" y="4.2" fill="#4D5663" fill-opacity="1" font-family="TOBESTRIPPEDOpen SansTOBESTRIPPED, verdana, arial, sans-serif" font-size="12" text-anchor="end" transform="translate(0,278.5)">0</text></g><g class="ytick"><text style="white-space:pre" x="80" y="4.2" fill="#4D5663" fill-opacity="1" font-family="TOBESTRIPPEDOpen SansTOBESTRIPPED, verdana, arial, sans-serif" font-size="12" text-anchor="end" transform="translate(0,224.73000000000002)">0.1</text></g><g class="ytick"><text style="white-space:pre" x="80" y="4.2" fill="#4D5663" fill-opacity="1" font-family="TOBESTRIPPEDOpen SansTOBESTRIPPED, verdana, arial, sans-serif" font-size="12" text-anchor="end" transform="translate(0,170.95999999999998)">0.2</text></g><g class="ytick"><text style="white-space:pre" x="80" y="4.2" fill="#4D5663" fill-opacity="1" font-family="TOBESTRIPPEDOpen SansTOBESTRIPPED, verdana, arial, sans-serif" font-size="12" text-anchor="end" transform="translate(0,117.19)">0.3</text></g></g></g><g class="subplot xy2"><g class="gridlayer"><g class="x"><path stroke="#E1E5ED" stroke-opacity="1" stroke-width="1" d="M0,341.5v178.5" class="xgrid crisp" transform="translate(186.34,0)"/><path stroke="#E1E5ED" stroke-opacity="1" stroke-width="1" d="M0,341.5v178.5" class="xgrid crisp" transform="translate(294.41999999999996,0)"/><path stroke="#E1E5ED" stroke-opacity="1" stroke-width="1" d="M0,341.5v178.5" class="xgrid crisp" transform="translate(400.76,0)"/><path stroke="#E1E5ED" stroke-opacity="1" stroke-width="1" d="M0,341.5v178.5" class="xgrid crisp" transform="translate(507.1,0)"/><path stroke="#E1E5ED" stroke-opacity="1" stroke-width="1" d="M0,341.5v178.5" class="xgrid crisp" transform="translate(609.96,0)"/></g><g class="y2"><path stroke="#E5E6E9" stroke-opacity="1" stroke-width="1" d="M80,0h584" class="y2grid crisp" transform="translate(0,479.12)"/><path stroke="#E5E6E9" stroke-opacity="1" stroke-width="1" d="M80,0h584" class="y2grid crisp" transform="translate(0,438.24)"/><path stroke="#E5E6E9" stroke-opacity="1" stroke-width="1" d="M80,0h584" class="y2grid crisp" transform="translate(0,397.36)"/><path stroke="#E5E6E9" stroke-opacity="1" stroke-width="1" d="M80,0h584" class="y2grid crisp" transform="translate(0,356.48)"/></g></g><g class="zerolinelayer"><path stroke="#444" stroke-opacity="1" stroke-width="1" d="M80,0h584" class="y2zl zl crisp" transform="translate(0,520)"/></g><path class="xlines-below"/><path class="ylines-below"/><g class="plot" clip-path="url(#clip41731fxy2plot)" transform="translate(80, 341.5)"><g class="scatterlayer"><g stroke-miterlimit="2" class="trace scatter traced2ca36"><path fill="#3780BF" fill-opacity=".3" stroke-width="0" d="M584,178.5L0,178.5L0,25.53L54.04,23.8L106.34,24L266.72,26.45L320.76,24.67L373.06,21.17L427.1,19.23L481.15,12.56L529.96,8.93L584,12.49" class="js-fill js-tozero"/><path fill="none" stroke="#3780BF" stroke-opacity="1" stroke-width="1.3" d="M0,25.53L54.04,23.8L106.34,24L266.72,26.45L320.76,24.67L373.06,21.17L427.1,19.23L481.15,12.56L529.96,8.93L584,12.49" class="js-line" opacity="1" vector-effect="non-scaling-stroke"/></g></g></g><path fill="none" d="M0,0" class="xlines-above crisp"/><path fill="none" d="M0,0" class="ylines-above crisp"/><g class="xaxislayer-above"><g class="xtick"><text style="white-space:pre" x="0" y="533" fill="#4D5663" fill-opacity="1" font-family="TOBESTRIPPEDOpen SansTOBESTRIPPED, verdana, arial, sans-serif" font-size="12" text-anchor="middle" transform="translate(80,0)">May 2017</text></g><g class="xtick"><text style="white-space:pre" x="0" y="533" fill="#4D5663" fill-opacity="1" font-family="TOBESTRIPPEDOpen SansTOBESTRIPPED, verdana, arial, sans-serif" font-size="12" text-anchor="middle" transform="translate(186.34,0)">Jul 2017</text></g><g class="xtick"><text style="white-space:pre" x="0" y="533" fill="#4D5663" fill-opacity="1" font-family="TOBESTRIPPEDOpen SansTOBESTRIPPED, verdana, arial, sans-serif" font-size="12" text-anchor="middle" transform="translate(294.41999999999996,0)">Sep 2017</text></g><g class="xtick"><text style="white-space:pre" x="0" y="533" fill="#4D5663" fill-opacity="1" font-family="TOBESTRIPPEDOpen SansTOBESTRIPPED, verdana, arial, sans-serif" font-size="12" text-anchor="middle" transform="translate(400.76,0)">Nov 2017</text></g><g class="xtick"><text style="white-space:pre" x="0" y="533" fill="#4D5663" fill-opacity="1" font-family="TOBESTRIPPEDOpen SansTOBESTRIPPED, verdana, arial, sans-serif" font-size="12" text-anchor="middle" transform="translate(507.1,0)">Jan 2018</text></g><g class="xtick"><text style="white-space:pre" x="0" y="533" fill="#4D5663" fill-opacity="1" font-family="TOBESTRIPPEDOpen SansTOBESTRIPPED, verdana, arial, sans-serif" font-size="12" text-anchor="middle" transform="translate(609.96,0)">Mar 2018</text></g></g><g class="yaxislayer-above"><g class="y2tick"><text style="white-space:pre" x="79" y="4.2" fill="#444" fill-opacity="1" font-family="TOBESTRIPPEDOpen SansTOBESTRIPPED, verdana, arial, sans-serif" font-size="12" text-anchor="end" transform="translate(0,520)">0</text></g><g class="y2tick"><text style="white-space:pre" x="79" y="4.2" fill="#444" fill-opacity="1" font-family="TOBESTRIPPEDOpen SansTOBESTRIPPED, verdana, arial, sans-serif" font-size="12" text-anchor="end" transform="translate(0,479.12)">0.1</text></g><g class="y2tick"><text style="white-space:pre" x="79" y="4.2" fill="#444" fill-opacity="1" font-family="TOBESTRIPPEDOpen SansTOBESTRIPPED, verdana, arial, sans-serif" font-size="12" text-anchor="end" transform="translate(0,438.24)">0.2</text></g><g class="y2tick"><text style="white-space:pre" x="79" y="4.2" fill="#444" fill-opacity="1" font-family="TOBESTRIPPEDOpen SansTOBESTRIPPED, verdana, arial, sans-serif" font-size="12" text-anchor="end" transform="translate(0,397.36)">0.3</text></g><g class="y2tick"><text style="white-space:pre" x="79" y="4.2" fill="#444" fill-opacity="1" font-family="TOBESTRIPPEDOpen SansTOBESTRIPPED, verdana, arial, sans-serif" font-size="12" text-anchor="end" transform="translate(0,356.48)">0.4</text></g></g></g></g><defs id="topdefs-41731f"><clipPath id="legend41731f"><rect width="112" height="48" x="0" y="0"/></clipPath></defs><g class="layer-above"><g class="shapelayer"><path fill="#000" fill-opacity="0" fill-rule="evenodd" stroke="#DB4052" stroke-opacity="1" stroke-width="1" d="M609.96,520L609.96,100" clip-path="url(#clip41731fx)" data-index="0" opacity="1"/></g></g><g class="infolayer"><g class="g-gtitle"><text x="400" y="50" fill="#4D5663" class="gtitle" font-family="TOBESTRIPPEDOpen SansTOBESTRIPPED, verdana, arial, sans-serif" font-size="17" font-weight="normal" opacity="1" text-anchor="middle" style="white-space:pre">Reach and Site Reach</text></g><g class="legend" pointer-events="all" transform="translate(675.6800000000001, 100)"><rect width="112" height="48" x="0" y="0" fill="#F5F6F9" fill-opacity="1" stroke="#444" stroke-opacity="1" stroke-width="0" class="bg" shape-rendering="crispEdges"/><g class="scrollbox" clip-path="url(#legend41731f)" transform="translate(0, 0)"><g class="groups"><g class="traces" opacity="1" transform="translate(0, 14.5)"><g class="layers"><g class="legendfill"><path fill="#F93" fill-opacity=".3" stroke-width="0" d="M5,0h30v6h-30z" class="js-fill"/></g><g class="legendlines"><path fill="none" stroke="#F93" stroke-opacity="1" stroke-width="1.3" d="M5,0h30" class="js-line"/></g></g><text x="40" y="4.68" fill="#4D5663" fill-opacity="1" class="legendtext user-select-none" font-family="TOBESTRIPPEDOpen SansTOBESTRIPPED, verdana, arial, sans-serif" font-size="12" text-anchor="start" style="white-space:pre">reach</text><rect width="152" height="19" x="0" y="-9.5" fill="#000" fill-opacity="0" class="legendtoggle" cursor="pointer" pointer-events="all"/></g><g class="traces" opacity="1" transform="translate(0, 33.5)"><g class="layers"><g class="legendfill"><path fill="#3780BF" fill-opacity=".3" stroke-width="0" d="M5,0h30v6h-30z" class="js-fill"/></g><g class="legendlines"><path fill="none" stroke="#3780BF" stroke-opacity="1" stroke-width="1.3" d="M5,0h30" class="js-line"/></g></g><text x="40" y="4.68" fill="#4D5663" fill-opacity="1" class="legendtext user-select-none" font-family="TOBESTRIPPEDOpen SansTOBESTRIPPED, verdana, arial, sans-serif" font-size="12" text-anchor="start" style="white-space:pre">site_reach</text><rect width="152" height="19" x="0" y="-9.5" fill="#000" fill-opacity="0" class="legendtoggle" cursor="pointer" pointer-events="all"/></g></g></g><rect width="0" height="0" x="0" y="0" fill="#808BA4" fill-opacity="1" class="scrollbar" rx="20" ry="3"/></g></g></svg>