<svg xmlns="http://www.w3.org/2000/svg" xmlns:svg="http://www.w3.org/2000/svg" id="svg322" width="720" height="373" class="marks" version="1.1" viewBox="0 0 720 373"><metadata id="metadata328"/><g id="g320" transform="translate(63,30)"><g id="g318" class="mark-group role-frame root"><g id="g316" transform="translate(0,0)"><path id="path2" fill="none" stroke="#ddd" d="M0.5,0.5h400v300h-400Z" class="background"/><g id="g314"><g id="g20" class="mark-group role-axis"><g id="g18" transform="translate(0.5,300.5)"><path id="path4" fill="none" d="M0,0h0v0h0Z" class="background" pointer-events="none"/><g id="g16"><g id="g14" class="mark-rule role-axis-grid" pointer-events="none"><line id="line6" x2="0" y2="300" fill="none" stroke="#999" stroke-width=".5" opacity="1" transform="translate(24,-300)"/><line id="line8" x2="0" y2="300" fill="none" stroke="#999" stroke-width=".5" opacity="1" transform="translate(141,-300)"/><line id="line10" x2="0" y2="300" fill="none" stroke="#999" stroke-width=".5" opacity="1" transform="translate(259,-300)"/><line id="line12" x2="0" y2="300" fill="none" stroke="#999" stroke-width=".5" opacity="1" transform="translate(376,-300)"/></g></g></g></g><g id="g48" class="mark-group role-axis"><g id="g46" transform="translate(0.5,0.5)"><path id="path22" fill="none" d="M0,0h0v0h0Z" class="background" pointer-events="none"/><g id="g44"><g id="g42" class="mark-rule role-axis-grid" pointer-events="none"><line id="line24" x2="400" y2="0" fill="none" stroke="#999" stroke-width=".5" opacity="1" transform="translate(0,300)"/><line id="line26" x2="400" y2="0" fill="none" stroke="#999" stroke-width=".5" opacity="1" transform="translate(0,263)"/><line id="line28" x2="400" y2="0" fill="none" stroke="#999" stroke-width=".5" opacity="1" transform="translate(0,225)"/><line id="line30" x2="400" y2="0" fill="none" stroke="#999" stroke-width=".5" opacity="1" transform="translate(0,188)"/><line id="line32" x2="400" y2="0" fill="none" stroke="#999" stroke-width=".5" opacity="1" transform="translate(0,150)"/><line id="line34" x2="400" y2="0" fill="none" stroke="#999" stroke-width=".5" opacity="1" transform="translate(0,113)"/><line id="line36" x2="400" y2="0" fill="none" stroke="#999" stroke-width=".5" opacity="1" transform="translate(0,75)"/><line id="line38" x2="400" y2="0" fill="none" stroke="#999" stroke-width=".5" opacity="1" transform="translate(0,38)"/><line id="line40" x2="400" y2="0" fill="none" stroke="#999" stroke-width=".5" opacity="1" transform="translate(0,0)"/></g></g></g></g><g id="g110" class="mark-group role-scope pathgroup"><g id="g58" transform="translate(0,0)"><path id="path50" fill="none" d="M0,0h400v300h-400Z" class="background"/><g id="g56"><g id="g54" class="mark-line role-mark marks"><path id="path52" fill="none" stroke="#4c78a8" stroke-width="3" d="M376.47058823529414,30.500384226442463L258.8235294117647,42.63875508571124L141.17647058823528,23.18941359463173L23.529411764705856,37.5"/></g></g></g><g id="g68" transform="translate(0,0)"><path id="path60" fill="none" d="M0,0h400v300h-400Z" class="background"/><g id="g66"><g id="g64" class="mark-line role-mark marks"><path id="path62" fill="none" stroke="#f58518" stroke-width="3" d="M376.47058823529414,87.43051213726287L258.8235294117647,88.15323657468431L141.17647058823528,50.368792670193756L23.529411764705856,37.5"/></g></g></g><g id="g78" transform="translate(0,0)"><path id="path70" fill="none" d="M0,0h400v300h-400Z" class="background"/><g id="g76"><g id="g74" class="mark-line role-mark marks"><path id="path72" fill="none" stroke="#e45756" stroke-width="3" d="M376.47058823529414,188.0146598080944L258.8235294117647,165.97751553189883L141.17647058823528,71.05888064533238L23.529411764705856,37.5"/></g></g></g><g id="g88" transform="translate(0,0)"><path id="path80" fill="none" d="M0,0h400v300h-400Z" class="background"/><g id="g86"><g id="g84" class="mark-line role-mark marks"><path id="path82" fill="none" stroke="#72b7b2" stroke-width="3" d="M376.47058823529414,244.74097050249938L258.8235294117647,171.10857423696044L141.17647058823528,68.38188933162391L23.529411764705856,37.5"/></g></g></g><g id="g98" transform="translate(0,0)"><path id="path90" fill="none" d="M0,0h400v300h-400Z" class="background"/><g id="g96"><g id="g94" class="mark-line role-mark marks"><path id="path92" fill="none" stroke="#54a24b" stroke-width="3" d="M376.47058823529414,276.5213542130944L258.8235294117647,208.6513187537037L141.17647058823528,69.82767650846904L23.529411764705856,37.5"/></g></g></g><g id="g108" transform="translate(0,0)"><path id="path100" fill="none" d="M0,0h400v300h-400Z" class="background"/><g id="g106"><g id="g104" class="mark-line role-mark marks"><path id="path102" fill="none" stroke="#eeca3b" stroke-width="3" d="M376.47058823529414,175.1004933503848L258.8235294117647,177.28060494730283L141.17647058823528,66.43031835080012L23.529411764705856,37.5"/></g></g></g></g><g id="g216" class="mark-group role-legend"><g id="g214" transform="translate(418,0)"><path id="path112" fill="none" d="M0,0h234v111h-234Z" class="background" pointer-events="none"/><g id="g212"><g id="g206" class="mark-group role-legend-entry"><g id="g204" transform="translate(0,18)"><path id="path114" fill="none" d="M0,0h0v0h0Z" class="background" pointer-events="none"/><g id="g202"><g id="g200" class="mark-group role-scope"><g id="g128" transform="translate(0,0)"><path id="path116" fill="none" d="M0,0h234v13h-234Z" class="background" opacity="1" pointer-events="none"/><g id="g126"><g id="g120" class="mark-symbol role-legend-symbol" pointer-events="none"><path id="path118" fill="none" stroke="#4c78a8" stroke-width="1.5" d="M5,0A5,5,0,1,1,-5,0A5,5,0,1,1,5,0" opacity="1" transform="translate(6,6)"/></g><g id="g124" class="mark-text role-legend-label" pointer-events="none"><text id="text122" fill="#000" font-family="sans-serif" font-size="12" opacity="1" text-anchor="start" transform="translate(16,10)">Google</text></g></g></g><g id="g142" transform="translate(0,16)"><path id="path130" fill="none" d="M0,0h234v13h-234Z" class="background" opacity="1" pointer-events="none"/><g id="g140"><g id="g134" class="mark-symbol role-legend-symbol" pointer-events="none"><path id="path132" fill="none" stroke="#f58518" stroke-width="1.5" d="M5,0A5,5,0,1,1,-5,0A5,5,0,1,1,5,0" opacity="1" transform="translate(6,6)"/></g><g id="g138" class="mark-text role-legend-label" pointer-events="none"><text id="text136" fill="#000" font-family="sans-serif" font-size="12" opacity="1" text-anchor="start" transform="translate(16,10)">Facebook</text></g></g></g><g id="g156" transform="translate(0,32)"><path id="path144" fill="none" d="M0,0h234v13h-234Z" class="background" opacity="1" pointer-events="none"/><g id="g154"><g id="g148" class="mark-symbol role-legend-symbol" pointer-events="none"><path id="path146" fill="none" stroke="#e45756" stroke-width="1.5" d="M5,0A5,5,0,1,1,-5,0A5,5,0,1,1,5,0" opacity="1" transform="translate(6,6)"/></g><g id="g152" class="mark-text role-legend-label" pointer-events="none"><text id="text150" fill="#000" font-family="sans-serif" font-size="12" opacity="1" text-anchor="start" transform="translate(16,10)">Top 50 (excl. Google, Facebook)</text></g></g></g><g id="g170" transform="translate(0,48)"><path id="path158" fill="none" d="M0,0h234v13h-234Z" class="background" opacity="1" pointer-events="none"/><g id="g168"><g id="g162" class="mark-symbol role-legend-symbol" pointer-events="none"><path id="path160" fill="none" stroke="#72b7b2" stroke-width="1.5" d="M5,0A5,5,0,1,1,-5,0A5,5,0,1,1,5,0" opacity="1" transform="translate(6,6)"/></g><g id="g166" class="mark-text role-legend-label" pointer-events="none"><text id="text164" fill="#000" font-family="sans-serif" font-size="12" opacity="1" text-anchor="start" transform="translate(16,10)">Smaller Advertisers (rank: 50-100)</text></g></g></g><g id="g184" transform="translate(0,64)"><path id="path172" fill="none" d="M0,0h234v13h-234Z" class="background" opacity="1" pointer-events="none"/><g id="g182"><g id="g176" class="mark-symbol role-legend-symbol" pointer-events="none"><path id="path174" fill="none" stroke="#54a24b" stroke-width="1.5" d="M5,0A5,5,0,1,1,-5,0A5,5,0,1,1,5,0" opacity="1" transform="translate(6,6)"/></g><g id="g180" class="mark-text role-legend-label" pointer-events="none"><text id="text178" fill="#000" font-family="sans-serif" font-size="12" opacity="1" text-anchor="start" transform="translate(16,10)">Smaller Advertisers (rank: 100-150)</text></g></g></g><g id="g198" transform="translate(0,80)"><path id="path186" fill="none" d="M0,0h234v13h-234Z" class="background" opacity="1" pointer-events="none"/><g id="g196"><g id="g190" class="mark-symbol role-legend-symbol" pointer-events="none"><path id="path188" fill="none" stroke="#eeca3b" stroke-width="1.5" d="M5,0A5,5,0,1,1,-5,0A5,5,0,1,1,5,0" opacity="1" transform="translate(6,6)"/></g><g id="g194" class="mark-text role-legend-label" pointer-events="none"><text id="text192" fill="#000" font-family="sans-serif" font-size="12" opacity="1" text-anchor="start" transform="translate(16,10)">Smallest Advertisers (rank: &lt;150)</text></g></g></g></g></g></g></g><g id="g210" class="mark-text role-legend-title" pointer-events="none"><text id="text208" fill="#000" font-family="sans-serif" font-size="13" font-weight="bold" opacity="1" text-anchor="start" transform="translate(0,10)">Company</text></g></g></g></g><g id="g220" class="mark-text role-title" pointer-events="none"><text id="text218" x="209" y="-14" fill="#000" font-family="sans-serif" font-size="13" font-weight="bold" opacity="1" text-anchor="middle">AdTech Vendors (site reach) - % change</text></g><g id="g256" class="mark-group role-axis"><g id="g254" transform="translate(0.5,300.5)"><path id="path222" fill="none" d="M0,0h0v0h0Z" class="background" pointer-events="none"/><g id="g252"><g id="g232" class="mark-rule role-axis-tick" pointer-events="none"><line id="line224" x2="0" y2="5" fill="none" stroke="#888" stroke-width="1" opacity="1" transform="translate(24,0)"/><line id="line226" x2="0" y2="5" fill="none" stroke="#888" stroke-width="1" opacity="1" transform="translate(141,0)"/><line id="line228" x2="0" y2="5" fill="none" stroke="#888" stroke-width="1" opacity="1" transform="translate(259,0)"/><line id="line230" x2="0" y2="5" fill="none" stroke="#888" stroke-width="1" opacity="1" transform="translate(376,0)"/></g><g id="g242" class="mark-text role-axis-label" pointer-events="none"><text id="text234" fill="#000" font-family="sans-serif" font-size="12" opacity="1" text-anchor="middle" transform="translate(23.529411764705856,16)">2018-04</text><text id="text236" fill="#000" font-family="sans-serif" font-size="12" opacity="1" text-anchor="middle" transform="translate(141.17647058823528,16)">2018-05</text><text id="text238" fill="#000" font-family="sans-serif" font-size="12" opacity="1" text-anchor="middle" transform="translate(258.8235294117647,16)">2018-06</text><text id="text240" fill="#000" font-family="sans-serif" font-size="12" opacity="1" text-anchor="middle" transform="translate(376.47058823529414,16)">2018-07</text></g><g id="g246" class="mark-rule role-axis-domain" pointer-events="none"><line id="line244" x2="400" y2="0" fill="none" stroke="#888" stroke-width=".5" opacity="1" transform="translate(0,0)"/></g><g id="g250" class="mark-text role-axis-title" pointer-events="none"><text id="text248" fill="#000" font-family="sans-serif" font-size="13" font-weight="bold" opacity="1" text-anchor="middle" transform="translate(200,33)">month</text></g></g></g></g><g id="g312" class="mark-group role-axis"><g id="g310" transform="translate(0.5,0.5)"><path id="path258" fill="none" d="M0,0h0v0h0Z" class="background" pointer-events="none"/><g id="g308"><g id="g278" class="mark-rule role-axis-tick" pointer-events="none"><line id="line260" x2="-5" y2="0" fill="none" stroke="#888" stroke-width="1" opacity="1" transform="translate(0,300)"/><line id="line262" x2="-5" y2="0" fill="none" stroke="#888" stroke-width="1" opacity="1" transform="translate(0,263)"/><line id="line264" x2="-5" y2="0" fill="none" stroke="#888" stroke-width="1" opacity="1" transform="translate(0,225)"/><line id="line266" x2="-5" y2="0" fill="none" stroke="#888" stroke-width="1" opacity="1" transform="translate(0,188)"/><line id="line268" x2="-5" y2="0" fill="none" stroke="#888" stroke-width="1" opacity="1" transform="translate(0,150)"/><line id="line270" x2="-5" y2="0" fill="none" stroke="#888" stroke-width="1" opacity="1" transform="translate(0,113)"/><line id="line272" x2="-5" y2="0" fill="none" stroke="#888" stroke-width="1" opacity="1" transform="translate(0,75)"/><line id="line274" x2="-5" y2="0" fill="none" stroke="#888" stroke-width="1" opacity="1" transform="translate(0,38)"/><line id="line276" x2="-5" y2="0" fill="none" stroke="#888" stroke-width="1" opacity="1" transform="translate(0,0)"/></g><g id="g298" class="mark-text role-axis-label" pointer-events="none"><text id="text280" fill="#000" font-family="sans-serif" font-size="12" opacity="1" text-anchor="end" transform="translate(-7,304)">-35%</text><text id="text282" fill="#000" font-family="sans-serif" font-size="12" opacity="1" text-anchor="end" transform="translate(-7,266.5)">-30%</text><text id="text284" fill="#000" font-family="sans-serif" font-size="12" opacity="1" text-anchor="end" transform="translate(-7,229)">-25%</text><text id="text286" fill="#000" font-family="sans-serif" font-size="12" opacity="1" text-anchor="end" transform="translate(-7,191.5)">-20%</text><text id="text288" fill="#000" font-family="sans-serif" font-size="12" opacity="1" text-anchor="end" transform="translate(-7,154)">-15%</text><text id="text290" fill="#000" font-family="sans-serif" font-size="12" opacity="1" text-anchor="end" transform="translate(-7,116.5)">-10%</text><text id="text292" fill="#000" font-family="sans-serif" font-size="12" opacity="1" text-anchor="end" transform="translate(-7,79)">-5%</text><text id="text294" fill="#000" font-family="sans-serif" font-size="12" opacity="1" text-anchor="end" transform="translate(-7,41.5)">0%</text><text id="text296" fill="#000" font-family="sans-serif" font-size="12" opacity="1" text-anchor="end" transform="translate(-7,4)">5%</text></g><g id="g302" class="mark-rule role-axis-domain" pointer-events="none"><line id="line300" x2="0" y2="-300" fill="none" stroke="#888" stroke-width=".5" opacity="1" transform="translate(0,300)"/></g><g id="g306" class="mark-text role-axis-title" pointer-events="none"><text id="text304" fill="#000" font-family="sans-serif" font-size="13" font-weight="bold" opacity="1" text-anchor="middle" transform="rotate(-90,52,98)">Change in site reach</text></g></g></g></g></g></g></g></g></svg>