<svg xmlns="http://www.w3.org/2000/svg" xmlns:svg="http://www.w3.org/2000/svg" id="svg304" width="720" height="366" class="marks" version="1.1" viewBox="0 0 720 366"><metadata id="metadata310"/><g id="g302" transform="translate(63,23)"><g id="g300" class="mark-group role-frame root"><g id="g298" transform="translate(0,0)"><path id="path2" fill="none" stroke="#ddd" d="M0.5,0.5h400v300h-400Z" class="background"/><g id="g296"><g id="g20" class="mark-group role-axis"><g id="g18" transform="translate(0.5,300.5)"><path id="path4" fill="none" d="M0,0h0v0h0Z" class="background" pointer-events="none"/><g id="g16"><g id="g14" class="mark-rule role-axis-grid" pointer-events="none"><line id="line6" x2="0" y2="300" fill="none" stroke="#999" stroke-width=".5" opacity="1" transform="translate(24,-300)"/><line id="line8" x2="0" y2="300" fill="none" stroke="#999" stroke-width=".5" opacity="1" transform="translate(141,-300)"/><line id="line10" x2="0" y2="300" fill="none" stroke="#999" stroke-width=".5" opacity="1" transform="translate(259,-300)"/><line id="line12" x2="0" y2="300" fill="none" stroke="#999" stroke-width=".5" opacity="1" transform="translate(376,-300)"/></g></g></g></g><g id="g42" class="mark-group role-axis"><g id="g40" transform="translate(0.5,0.5)"><path id="path22" fill="none" d="M0,0h0v0h0Z" class="background" pointer-events="none"/><g id="g38"><g id="g36" class="mark-rule role-axis-grid" pointer-events="none"><line id="line24" x2="400" y2="0" fill="none" stroke="#999" stroke-width=".5" opacity="1" transform="translate(0,289)"/><line id="line26" x2="400" y2="0" fill="none" stroke="#999" stroke-width=".5" opacity="1" transform="translate(0,236)"/><line id="line28" x2="400" y2="0" fill="none" stroke="#999" stroke-width=".5" opacity="1" transform="translate(0,182)"/><line id="line30" x2="400" y2="0" fill="none" stroke="#999" stroke-width=".5" opacity="1" transform="translate(0,129)"/><line id="line32" x2="400" y2="0" fill="none" stroke="#999" stroke-width=".5" opacity="1" transform="translate(0,75)"/><line id="line34" x2="400" y2="0" fill="none" stroke="#999" stroke-width=".5" opacity="1" transform="translate(0,21)"/></g></g></g></g><g id="g104" class="mark-group role-scope pathgroup"><g id="g52" transform="translate(0,0)"><path id="path44" fill="none" d="M0,0h400v300h-400Z" class="background"/><g id="g50"><g id="g48" class="mark-line role-mark marks"><path id="path46" fill="none" stroke="#4c78a8" stroke-width="3" d="M376.47058823529414,34.39821350616944L258.8235294117647,47.52065821792135L141.17647058823528,6.317562896557661L23.529411764705856,21.428571428571445"/></g></g></g><g id="g62" transform="translate(0,0)"><path id="path54" fill="none" d="M0,0h400v300h-400Z" class="background"/><g id="g60"><g id="g58" class="mark-line role-mark marks"><path id="path56" fill="none" stroke="#f58518" stroke-width="3" d="M376.47058823529414,81.89462762716829L258.8235294117647,86.40407234773869L141.17647058823528,34.02387662956863L23.529411764705856,21.428571428571445"/></g></g></g><g id="g72" transform="translate(0,0)"><path id="path64" fill="none" d="M0,0h400v300h-400Z" class="background"/><g id="g70"><g id="g68" class="mark-line role-mark marks"><path id="path66" fill="none" stroke="#e45756" stroke-width="3" d="M376.47058823529414,154.73430129123048L258.8235294117647,133.95289538572362L141.17647058823528,57.65501744443327L23.529411764705856,21.428571428571445"/></g></g></g><g id="g82" transform="translate(0,0)"><path id="path74" fill="none" d="M0,0h400v300h-400Z" class="background"/><g id="g80"><g id="g78" class="mark-line role-mark marks"><path id="path76" fill="none" stroke="#54a24b" stroke-width="3" d="M376.47058823529414,289.38225723337985L258.8235294117647,187.79270196665257L141.17647058823528,26.685108672947706L23.529411764705856,21.428571428571445"/></g></g></g><g id="g92" transform="translate(0,0)"><path id="path84" fill="none" d="M0,0h400v300h-400Z" class="background"/><g id="g90"><g id="g88" class="mark-line role-mark marks"><path id="path86" fill="none" stroke="#eeca3b" stroke-width="3" d="M376.47058823529414,252.17265962823902L258.8235294117647,207.021353415664L141.17647058823528,46.615468459194744L23.529411764705856,21.428571428571445"/></g></g></g><g id="g102" transform="translate(0,0)"><path id="path94" fill="none" d="M0,0h400v300h-400Z" class="background"/><g id="g100"><g id="g98" class="mark-line role-mark marks"><path id="path96" fill="none" stroke="#72b7b2" stroke-width="3" d="M376.47058823529414,201.62905942964554L258.8235294117647,149.44696068039676L141.17647058823528,24.21056916925778L23.529411764705856,21.428571428571445"/></g></g></g></g><g id="g210" class="mark-group role-legend"><g id="g208" transform="translate(418,0)"><path id="path106" fill="none" d="M0,0h234v111h-234Z" class="background" pointer-events="none"/><g id="g206"><g id="g200" class="mark-group role-legend-entry"><g id="g198" transform="translate(0,18)"><path id="path108" fill="none" d="M0,0h0v0h0Z" class="background" pointer-events="none"/><g id="g196"><g id="g194" class="mark-group role-scope"><g id="g122" transform="translate(0,0)"><path id="path110" fill="none" d="M0,0h234v13h-234Z" class="background" opacity="1" pointer-events="none"/><g id="g120"><g id="g114" class="mark-symbol role-legend-symbol" pointer-events="none"><path id="path112" fill="none" stroke="#4c78a8" stroke-width="1.5" d="M5,0A5,5,0,1,1,-5,0A5,5,0,1,1,5,0" opacity="1" transform="translate(6,6)"/></g><g id="g118" class="mark-text role-legend-label" pointer-events="none"><text id="text116" fill="#000" font-family="sans-serif" font-size="12" opacity="1" text-anchor="start" transform="translate(16,10)">Google</text></g></g></g><g id="g136" transform="translate(0,16)"><path id="path124" fill="none" d="M0,0h234v13h-234Z" class="background" opacity="1" pointer-events="none"/><g id="g134"><g id="g128" class="mark-symbol role-legend-symbol" pointer-events="none"><path id="path126" fill="none" stroke="#f58518" stroke-width="1.5" d="M5,0A5,5,0,1,1,-5,0A5,5,0,1,1,5,0" opacity="1" transform="translate(6,6)"/></g><g id="g132" class="mark-text role-legend-label" pointer-events="none"><text id="text130" fill="#000" font-family="sans-serif" font-size="12" opacity="1" text-anchor="start" transform="translate(16,10)">Facebook</text></g></g></g><g id="g150" transform="translate(0,32)"><path id="path138" fill="none" d="M0,0h234v13h-234Z" class="background" opacity="1" pointer-events="none"/><g id="g148"><g id="g142" class="mark-symbol role-legend-symbol" pointer-events="none"><path id="path140" fill="none" stroke="#e45756" stroke-width="1.5" d="M5,0A5,5,0,1,1,-5,0A5,5,0,1,1,5,0" opacity="1" transform="translate(6,6)"/></g><g id="g146" class="mark-text role-legend-label" pointer-events="none"><text id="text144" fill="#000" font-family="sans-serif" font-size="12" opacity="1" text-anchor="start" transform="translate(16,10)">Top 50 (excl. Google, Facebook)</text></g></g></g><g id="g164" transform="translate(0,48)"><path id="path152" fill="none" d="M0,0h234v13h-234Z" class="background" opacity="1" pointer-events="none"/><g id="g162"><g id="g156" class="mark-symbol role-legend-symbol" pointer-events="none"><path id="path154" fill="none" stroke="#72b7b2" stroke-width="1.5" d="M5,0A5,5,0,1,1,-5,0A5,5,0,1,1,5,0" opacity="1" transform="translate(6,6)"/></g><g id="g160" class="mark-text role-legend-label" pointer-events="none"><text id="text158" fill="#000" font-family="sans-serif" font-size="12" opacity="1" text-anchor="start" transform="translate(16,10)">Smaller Advertisers (rank: 150-200)</text></g></g></g><g id="g178" transform="translate(0,64)"><path id="path166" fill="none" d="M0,0h234v13h-234Z" class="background" opacity="1" pointer-events="none"/><g id="g176"><g id="g170" class="mark-symbol role-legend-symbol" pointer-events="none"><path id="path168" fill="none" stroke="#54a24b" stroke-width="1.5" d="M5,0A5,5,0,1,1,-5,0A5,5,0,1,1,5,0" opacity="1" transform="translate(6,6)"/></g><g id="g174" class="mark-text role-legend-label" pointer-events="none"><text id="text172" fill="#000" font-family="sans-serif" font-size="12" opacity="1" text-anchor="start" transform="translate(16,10)">Smaller Advertisers (rank: 50-100)</text></g></g></g><g id="g192" transform="translate(0,80)"><path id="path180" fill="none" d="M0,0h234v13h-234Z" class="background" opacity="1" pointer-events="none"/><g id="g190"><g id="g184" class="mark-symbol role-legend-symbol" pointer-events="none"><path id="path182" fill="none" stroke="#eeca3b" stroke-width="1.5" d="M5,0A5,5,0,1,1,-5,0A5,5,0,1,1,5,0" opacity="1" transform="translate(6,6)"/></g><g id="g188" class="mark-text role-legend-label" pointer-events="none"><text id="text186" fill="#000" font-family="sans-serif" font-size="12" opacity="1" text-anchor="start" transform="translate(16,10)">Smaller Advertisers (rank: 100-150)</text></g></g></g></g></g></g></g><g id="g204" class="mark-text role-legend-title" pointer-events="none"><text id="text202" fill="#000" font-family="sans-serif" font-size="13" font-weight="bold" opacity="1" text-anchor="start" transform="translate(0,10)">Company</text></g></g></g></g><g id="g214" class="mark-text role-title" pointer-events="none"><g id="g1118"><text id="text212" x="199" y="-7" fill="#000" font-family="sans-serif" font-size="13" font-weight="bold" opacity="1" text-anchor="middle">AdTech Vendors (reach) - % change</text></g></g><g id="g250" class="mark-group role-axis"><g id="g248" transform="translate(0.5,300.5)"><path id="path216" fill="none" d="M0,0h0v0h0Z" class="background" pointer-events="none"/><g id="g246"><g id="g226" class="mark-rule role-axis-tick" pointer-events="none"><line id="line218" x2="0" y2="5" fill="none" stroke="#888" stroke-width="1" opacity="1" transform="translate(24,0)"/><line id="line220" x2="0" y2="5" fill="none" stroke="#888" stroke-width="1" opacity="1" transform="translate(141,0)"/><line id="line222" x2="0" y2="5" fill="none" stroke="#888" stroke-width="1" opacity="1" transform="translate(259,0)"/><line id="line224" x2="0" y2="5" fill="none" stroke="#888" stroke-width="1" opacity="1" transform="translate(376,0)"/></g><g id="g236" class="mark-text role-axis-label" pointer-events="none"><text id="text228" fill="#000" font-family="sans-serif" font-size="12" opacity="1" text-anchor="middle" transform="translate(23.529411764705856,16)">2018-04</text><text id="text230" fill="#000" font-family="sans-serif" font-size="12" opacity="1" text-anchor="middle" transform="translate(141.17647058823528,16)">2018-05</text><text id="text232" fill="#000" font-family="sans-serif" font-size="12" opacity="1" text-anchor="middle" transform="translate(258.8235294117647,16)">2018-06</text><text id="text234" fill="#000" font-family="sans-serif" font-size="12" opacity="1" text-anchor="middle" transform="translate(376.47058823529414,16)">2018-07</text></g><g id="g240" class="mark-rule role-axis-domain" pointer-events="none"><line id="line238" x2="400" y2="0" fill="none" stroke="#888" stroke-width=".5" opacity="1" transform="translate(0,0)"/></g><g id="g244" class="mark-text role-axis-title" pointer-events="none"><text id="text242" fill="#000" font-family="sans-serif" font-size="13" font-weight="bold" opacity="1" text-anchor="middle" transform="translate(200,33)">month</text></g></g></g></g><g id="g294" class="mark-group role-axis"><g id="g292" transform="translate(0.5,0.5)"><path id="path252" fill="none" d="M0,0h0v0h0Z" class="background" pointer-events="none"/><g id="g290"><g id="g266" class="mark-rule role-axis-tick" pointer-events="none"><line id="line254" x2="-5" y2="0" fill="none" stroke="#888" stroke-width="1" opacity="1" transform="translate(0,289)"/><line id="line256" x2="-5" y2="0" fill="none" stroke="#888" stroke-width="1" opacity="1" transform="translate(0,236)"/><line id="line258" x2="-5" y2="0" fill="none" stroke="#888" stroke-width="1" opacity="1" transform="translate(0,182)"/><line id="line260" x2="-5" y2="0" fill="none" stroke="#888" stroke-width="1" opacity="1" transform="translate(0,129)"/><line id="line262" x2="-5" y2="0" fill="none" stroke="#888" stroke-width="1" opacity="1" transform="translate(0,75)"/><line id="line264" x2="-5" y2="0" fill="none" stroke="#888" stroke-width="1" opacity="1" transform="translate(0,21)"/></g><g id="g280" class="mark-text role-axis-label" pointer-events="none"><text id="text268" fill="#000" font-family="sans-serif" font-size="12" opacity="1" text-anchor="end" transform="translate(-7,293.2857142857143)">-25%</text><text id="text270" fill="#000" font-family="sans-serif" font-size="12" opacity="1" text-anchor="end" transform="translate(-7,239.71428571428572)">-20%</text><text id="text272" fill="#000" font-family="sans-serif" font-size="12" opacity="1" text-anchor="end" transform="translate(-7,186.14285714285714)">-15%</text><text id="text274" fill="#000" font-family="sans-serif" font-size="12" opacity="1" text-anchor="end" transform="translate(-7,132.57142857142858)">-10%</text><text id="text276" fill="#000" font-family="sans-serif" font-size="12" opacity="1" text-anchor="end" transform="translate(-7,79)">-5%</text><text id="text278" fill="#000" font-family="sans-serif" font-size="12" opacity="1" text-anchor="end" transform="translate(-7,25.428571428571445)">0%</text></g><g id="g284" class="mark-rule role-axis-domain" pointer-events="none"><line id="line282" x2="0" y2="-300" fill="none" stroke="#888" stroke-width=".5" opacity="1" transform="translate(0,300)"/></g><g id="g288" class="mark-text role-axis-title" pointer-events="none"><text id="text286" fill="#000" font-family="sans-serif" font-size="13" font-weight="bold" opacity="1" text-anchor="middle" transform="rotate(-90,52,98)">Change in Reach</text></g></g></g></g></g></g></g></g></svg>