<svg xmlns="http://www.w3.org/2000/svg" xmlns:svg="http://www.w3.org/2000/svg" id="svg652" width="914" height="475" class="marks" version="1.1" viewBox="0 0 914 475"><metadata id="metadata658"/><g id="g650" transform="translate(55,31)"><g id="g648" class="mark-group role-frame root"><g id="g646" transform="translate(0,0)"><path id="path2" fill="none" d="M0,0h0v400h0Z" class="background"/><g id="g644"><g id="g260" class="mark-group role-scope concat_0_group"><g id="g258" transform="translate(0,0)"><path id="path4" fill="none" stroke="#ddd" d="M0.5,0.5h300v400h-300Z" class="background"/><g id="g256"><g id="g44" class="mark-group role-axis"><g id="g42" transform="translate(0.5,0.5)"><path id="path6" fill="none" d="M0,0h0v0h0Z" class="background" pointer-events="none"/><g id="g40"><g id="g38" class="mark-rule role-axis-grid" pointer-events="none"><line id="line8" x2="300" y2="0" fill="none" stroke="#ddd" stroke-width="1" opacity="1" transform="translate(0,400)"/><line id="line10" x2="300" y2="0" fill="none" stroke="#ddd" stroke-width="1" opacity="1" transform="translate(0,371)"/><line id="line12" x2="300" y2="0" fill="none" stroke="#ddd" stroke-width="1" opacity="1" transform="translate(0,343)"/><line id="line14" x2="300" y2="0" fill="none" stroke="#ddd" stroke-width="1" opacity="1" transform="translate(0,314)"/><line id="line16" x2="300" y2="0" fill="none" stroke="#ddd" stroke-width="1" opacity="1" transform="translate(0,286)"/><line id="line18" x2="300" y2="0" fill="none" stroke="#ddd" stroke-width="1" opacity="1" transform="translate(0,257)"/><line id="line20" x2="300" y2="0" fill="none" stroke="#ddd" stroke-width="1" opacity="1" transform="translate(0,229)"/><line id="line22" x2="300" y2="0" fill="none" stroke="#ddd" stroke-width="1" opacity="1" transform="translate(0,200)"/><line id="line24" x2="300" y2="0" fill="none" stroke="#ddd" stroke-width="1" opacity="1" transform="translate(0,171)"/><line id="line26" x2="300" y2="0" fill="none" stroke="#ddd" stroke-width="1" opacity="1" transform="translate(0,143)"/><line id="line28" x2="300" y2="0" fill="none" stroke="#ddd" stroke-width="1" opacity="1" transform="translate(0,114)"/><line id="line30" x2="300" y2="0" fill="none" stroke="#ddd" stroke-width="1" opacity="1" transform="translate(0,86)"/><line id="line32" x2="300" y2="0" fill="none" stroke="#ddd" stroke-width="1" opacity="1" transform="translate(0,57)"/><line id="line34" x2="300" y2="0" fill="none" stroke="#ddd" stroke-width="1" opacity="1" transform="translate(0,29)"/><line id="line36" x2="300" y2="0" fill="none" stroke="#ddd" stroke-width="1" opacity="1" transform="translate(0,0)"/></g></g></g></g><g id="g48" class="mark-area role-mark concat_0_layer_0_marks"><path id="path46" fill="#4c78a8" d="M300,153.08334608910386L225,151.43742005476724L150,145.71541772530466L75,144.381921550715L0,145.5706311426783L0,400L75,400L150,400L225,400L300,400Z" opacity=".3"/></g><g id="g130" class="mark-group role-scope concat_0_layer_1_pathgroup"><g id="g58" transform="translate(0,0)"><path id="path50" fill="none" d="M0,0h300v400h-300Z" class="background"/><g id="g56"><g id="g54" class="mark-line role-mark concat_0_layer_1_marks"><path id="path52" fill="none" stroke="#ff9da6" stroke-width="3" d="M300,197.42210415584574L225,193.11620758256845L150,188.07328802627916L75,186.47589504291014L0,189.10348901293133"/></g></g></g><g id="g68" transform="translate(0,0)"><path id="path60" fill="none" d="M0,0h300v400h-300Z" class="background"/><g id="g66"><g id="g64" class="mark-line role-mark concat_0_layer_1_marks"><path id="path62" fill="none" stroke="#54a24b" stroke-width="3" d="M300,176.8437354433827L225,176.56338354833855L150,173.60441716195902L75,172.72436975835873L0,173.94448472456315"/></g></g></g><g id="g78" transform="translate(0,0)"><path id="path70" fill="none" d="M0,0h300v400h-300Z" class="background"/><g id="g76"><g id="g74" class="mark-line role-mark concat_0_layer_1_marks"><path id="path72" fill="none" stroke="#72b7b2" stroke-width="3" d="M300,128.5226497872046L225,124.63458292572511L150,110.41253275859805L75,108.27352139169875L0,108.98781090105456"/></g></g></g><g id="g88" transform="translate(0,0)"><path id="path80" fill="none" d="M0,0h300v400h-300Z" class="background"/><g id="g86"><g id="g84" class="mark-line role-mark concat_0_layer_1_marks"><path id="path82" fill="none" stroke="#4c78a8" stroke-width="3" d="M300,257.52700364468797L225,259.93332140333894L150,257.488098982357L75,256.84018435112677L0,258.5984496749035"/></g></g></g><g id="g98" transform="translate(0,0)"><path id="path90" fill="none" d="M0,0h300v400h-300Z" class="background"/><g id="g96"><g id="g94" class="mark-line role-mark concat_0_layer_1_marks"><path id="path92" fill="none" stroke="#eeca3b" stroke-width="3" d="M300,45.867294649936184L225,36.24412916405163L150,20.36846795061524L75,17.14452486214236L0,18.378393133622353"/></g></g></g><g id="g108" transform="translate(0,0)"><path id="path100" fill="none" d="M0,0h300v400h-300Z" class="background"/><g id="g106"><g id="g104" class="mark-line role-mark concat_0_layer_1_marks"><path id="path102" fill="none" stroke="#e45756" stroke-width="3" d="M300,191.8602397034285L225,196.0895558583398L150,189.6545697294186L75,188.64213975125875L0,186.70556915796342"/></g></g></g><g id="g118" transform="translate(0,0)"><path id="path110" fill="none" d="M0,0h300v400h-300Z" class="background"/><g id="g116"><g id="g114" class="mark-line role-mark concat_0_layer_1_marks"><path id="path112" fill="none" stroke="#b279a2" stroke-width="3" d="M300,95.04876832091128L225,98.38933925903234L150,80.05691439409082L75,73.15593177167983L0,71.02648119097267"/></g></g></g><g id="g128" transform="translate(0,0)"><path id="path120" fill="none" d="M0,0h300v400h-300Z" class="background"/><g id="g126"><g id="g124" class="mark-line role-mark concat_0_layer_1_marks"><path id="path122" fill="none" stroke="#f58518" stroke-width="3" d="M300,326.86911372583603L225,332.34527291738874L150,333.7778107076098L75,331.92235901298704L0,329.3507761579686"/></g></g></g></g><g id="g134" class="mark-text role-title" pointer-events="none"><text id="text132" fill="#000" font-family="sans-serif" font-size="13" font-weight="bold" opacity="1" text-anchor="middle" transform="translate(139,-14)">EU</text></g><g id="g174" class="mark-group role-axis"><g id="g172" transform="translate(0.5,400.5)"><path id="path136" fill="none" d="M0,0h0v0h0Z" class="background" pointer-events="none"/><g id="g170"><g id="g148" class="mark-rule role-axis-tick" pointer-events="none"><line id="line138" x2="0" y2="5" fill="none" stroke="#888" stroke-width="1" opacity="1" transform="translate(0,0)"/><line id="line140" x2="0" y2="5" fill="none" stroke="#888" stroke-width="1" opacity="1" transform="translate(75,0)"/><line id="line142" x2="0" y2="5" fill="none" stroke="#888" stroke-width="1" opacity="1" transform="translate(150,0)"/><line id="line144" x2="0" y2="5" fill="none" stroke="#888" stroke-width="1" opacity="1" transform="translate(225,0)"/><line id="line146" x2="0" y2="5" fill="none" stroke="#888" stroke-width="1" opacity="1" transform="translate(300,0)"/></g><g id="g160" class="mark-text role-axis-label" pointer-events="none"><text id="text150" fill="#000" font-family="sans-serif" font-size="12" opacity="1" text-anchor="middle" transform="translate(0,16)">2018-03</text><text id="text152" fill="#000" font-family="sans-serif" font-size="12" opacity="1" text-anchor="middle" transform="translate(75,16)">2018-04</text><text id="text154" fill="#000" font-family="sans-serif" font-size="12" opacity="1" text-anchor="middle" transform="translate(150,16)">2018-05</text><text id="text156" fill="#000" font-family="sans-serif" font-size="12" opacity="1" text-anchor="middle" transform="translate(225,16)">2018-06</text><text id="text158" fill="#000" font-family="sans-serif" font-size="12" opacity="1" text-anchor="middle" transform="translate(300,16)">2018-07</text></g><g id="g164" class="mark-rule role-axis-domain" pointer-events="none"><line id="line162" x2="300" y2="0" fill="none" stroke="#888" stroke-width="1" opacity="1" transform="translate(0,0)"/></g><g id="g168" class="mark-text role-axis-title" pointer-events="none"><text id="text166" fill="#000" font-family="sans-serif" font-size="13" font-weight="bold" opacity="1" text-anchor="middle" transform="translate(150,33)">Month</text></g></g></g></g><g id="g254" class="mark-group role-axis"><g id="g252" transform="translate(0.5,0.5)"><path id="path176" fill="none" d="M0,0h0v0h0Z" class="background" pointer-events="none"/><g id="g250"><g id="g208" class="mark-rule role-axis-tick" pointer-events="none"><line id="line178" x2="-5" y2="0" fill="none" stroke="#888" stroke-width="1" opacity="1" transform="translate(0,400)"/><line id="line180" x2="-5" y2="0" fill="none" stroke="#888" stroke-width="1" opacity="1" transform="translate(0,371)"/><line id="line182" x2="-5" y2="0" fill="none" stroke="#888" stroke-width="1" opacity="1" transform="translate(0,343)"/><line id="line184" x2="-5" y2="0" fill="none" stroke="#888" stroke-width="1" opacity="1" transform="translate(0,314)"/><line id="line186" x2="-5" y2="0" fill="none" stroke="#888" stroke-width="1" opacity="1" transform="translate(0,286)"/><line id="line188" x2="-5" y2="0" fill="none" stroke="#888" stroke-width="1" opacity="1" transform="translate(0,257)"/><line id="line190" x2="-5" y2="0" fill="none" stroke="#888" stroke-width="1" opacity="1" transform="translate(0,229)"/><line id="line192" x2="-5" y2="0" fill="none" stroke="#888" stroke-width="1" opacity="1" transform="translate(0,200)"/><line id="line194" x2="-5" y2="0" fill="none" stroke="#888" stroke-width="1" opacity="1" transform="translate(0,171)"/><line id="line196" x2="-5" y2="0" fill="none" stroke="#888" stroke-width="1" opacity="1" transform="translate(0,143)"/><line id="line198" x2="-5" y2="0" fill="none" stroke="#888" stroke-width="1" opacity="1" transform="translate(0,114)"/><line id="line200" x2="-5" y2="0" fill="none" stroke="#888" stroke-width="1" opacity="1" transform="translate(0,86)"/><line id="line202" x2="-5" y2="0" fill="none" stroke="#888" stroke-width="1" opacity="1" transform="translate(0,57)"/><line id="line204" x2="-5" y2="0" fill="none" stroke="#888" stroke-width="1" opacity="1" transform="translate(0,29)"/><line id="line206" x2="-5" y2="0" fill="none" stroke="#888" stroke-width="1" opacity="1" transform="translate(0,0)"/></g><g id="g240" class="mark-text role-axis-label" pointer-events="none"><text id="text210" fill="#000" font-family="sans-serif" font-size="12" opacity="1" text-anchor="end" transform="translate(-7,404)">0</text><text id="text212" fill="#000" font-family="sans-serif" font-size="12" opacity="1" text-anchor="end" transform="translate(-7,375.42857142857144)">1</text><text id="text214" fill="#000" font-family="sans-serif" font-size="12" opacity="1" text-anchor="end" transform="translate(-7,346.8571428571429)">2</text><text id="text216" fill="#000" font-family="sans-serif" font-size="12" opacity="1" text-anchor="end" transform="translate(-7,318.2857142857143)">3</text><text id="text218" fill="#000" font-family="sans-serif" font-size="12" opacity="1" text-anchor="end" transform="translate(-7,289.7142857142857)">4</text><text id="text220" fill="#000" font-family="sans-serif" font-size="12" opacity="1" text-anchor="end" transform="translate(-7,261.1428571428571)">5</text><text id="text222" fill="#000" font-family="sans-serif" font-size="12" opacity="1" text-anchor="end" transform="translate(-7,232.57142857142858)">6</text><text id="text224" fill="#000" font-family="sans-serif" font-size="12" opacity="1" text-anchor="end" transform="translate(-7,204)">7</text><text id="text226" fill="#000" font-family="sans-serif" font-size="12" opacity="1" text-anchor="end" transform="translate(-7,175.42857142857144)">8</text><text id="text228" fill="#000" font-family="sans-serif" font-size="12" opacity="1" text-anchor="end" transform="translate(-7,146.85714285714283)">9</text><text id="text230" fill="#000" font-family="sans-serif" font-size="12" opacity="1" text-anchor="end" transform="translate(-7,118.28571428571428)">10</text><text id="text232" fill="#000" font-family="sans-serif" font-size="12" opacity="1" text-anchor="end" transform="translate(-7,89.71428571428572)">11</text><text id="text234" fill="#000" font-family="sans-serif" font-size="12" opacity="1" text-anchor="end" transform="translate(-7,61.14285714285717)">12</text><text id="text236" fill="#000" font-family="sans-serif" font-size="12" opacity="1" text-anchor="end" transform="translate(-7,32.571428571428555)">13</text><text id="text238" fill="#000" font-family="sans-serif" font-size="12" opacity="1" text-anchor="end" transform="translate(-7,4)">14</text></g><g id="g244" class="mark-rule role-axis-domain" pointer-events="none"><line id="line242" x2="0" y2="-400" fill="none" stroke="#888" stroke-width="1" opacity="1" transform="translate(0,400)"/></g><g id="g248" class="mark-text role-axis-title" pointer-events="none"><text id="text246" fill="#000" font-family="sans-serif" font-size="13" font-weight="bold" opacity="1" text-anchor="middle" transform="translate(-34,200) rotate(-90) translate(0,-3)">Mean number of trackers</text></g></g></g></g></g></g></g><g id="g508" class="mark-group role-scope concat_1_group"><g id="g506" transform="translate(388,0)"><path id="path262" fill="none" stroke="#ddd" d="M0.5,0.5h300v400h-300Z" class="background"/><g id="g504"><g id="g300" class="mark-group role-axis"><g id="g298" transform="translate(0.5,0.5)"><path id="path264" fill="none" d="M0,0h0v0h0Z" class="background" pointer-events="none"/><g id="g296"><g id="g294" class="mark-rule role-axis-grid" pointer-events="none"><line id="line266" x2="300" y2="0" fill="none" stroke="#ddd" stroke-width="1" opacity="1" transform="translate(0,400)"/><line id="line268" x2="300" y2="0" fill="none" stroke="#ddd" stroke-width="1" opacity="1" transform="translate(0,369)"/><line id="line270" x2="300" y2="0" fill="none" stroke="#ddd" stroke-width="1" opacity="1" transform="translate(0,338)"/><line id="line272" x2="300" y2="0" fill="none" stroke="#ddd" stroke-width="1" opacity="1" transform="translate(0,308)"/><line id="line274" x2="300" y2="0" fill="none" stroke="#ddd" stroke-width="1" opacity="1" transform="translate(0,277)"/><line id="line276" x2="300" y2="0" fill="none" stroke="#ddd" stroke-width="1" opacity="1" transform="translate(0,246)"/><line id="line278" x2="300" y2="0" fill="none" stroke="#ddd" stroke-width="1" opacity="1" transform="translate(0,215)"/><line id="line280" x2="300" y2="0" fill="none" stroke="#ddd" stroke-width="1" opacity="1" transform="translate(0,185)"/><line id="line282" x2="300" y2="0" fill="none" stroke="#ddd" stroke-width="1" opacity="1" transform="translate(0,154)"/><line id="line284" x2="300" y2="0" fill="none" stroke="#ddd" stroke-width="1" opacity="1" transform="translate(0,123)"/><line id="line286" x2="300" y2="0" fill="none" stroke="#ddd" stroke-width="1" opacity="1" transform="translate(0,92)"/><line id="line288" x2="300" y2="0" fill="none" stroke="#ddd" stroke-width="1" opacity="1" transform="translate(0,62)"/><line id="line290" x2="300" y2="0" fill="none" stroke="#ddd" stroke-width="1" opacity="1" transform="translate(0,31)"/><line id="line292" x2="300" y2="0" fill="none" stroke="#ddd" stroke-width="1" opacity="1" transform="translate(0,0)"/></g></g></g></g><g id="g304" class="mark-area role-mark concat_1_layer_0_marks"><path id="path302" fill="#4c78a8" d="M300,153.32083987739983L200,160.21910298523468L100,163.49075869029613L0,172.209519762603L0,400L100,400L200,400L300,400Z" opacity=".3"/></g><g id="g386" class="mark-group role-scope concat_1_layer_1_pathgroup"><g id="g314" transform="translate(0,0)"><path id="path306" fill="none" d="M0,0h300v400h-300Z" class="background"/><g id="g312"><g id="g310" class="mark-line role-mark concat_1_layer_1_marks"><path id="path308" fill="none" stroke="#ff9da6" stroke-width="3" d="M300,250.55480593621158L200,250.53884443292057L100,249.065510178237L0,276.07384758629945"/></g></g></g><g id="g324" transform="translate(0,0)"><path id="path316" fill="none" d="M0,0h300v400h-300Z" class="background"/><g id="g322"><g id="g320" class="mark-line role-mark concat_1_layer_1_marks"><path id="path318" fill="none" stroke="#54a24b" stroke-width="3" d="M300,162.35608399233067L200,164.22187048874991L100,168.4630584575472L0,181.93763880606863"/></g></g></g><g id="g334" transform="translate(0,0)"><path id="path326" fill="none" d="M0,0h300v400h-300Z" class="background"/><g id="g332"><g id="g330" class="mark-line role-mark concat_1_layer_1_marks"><path id="path328" fill="none" stroke="#72b7b2" stroke-width="3" d="M300,123.47439124466433L200,137.30117171990588L100,158.56323277425122L0,172.94819070770333"/></g></g></g><g id="g344" transform="translate(0,0)"><path id="path336" fill="none" d="M0,0h300v400h-300Z" class="background"/><g id="g342"><g id="g340" class="mark-line role-mark concat_1_layer_1_marks"><path id="path338" fill="none" stroke="#eeca3b" stroke-width="3" d="M300,16.31022866602291L200,24.824398126198275L100,23.082240225682654L0,29.5711853967328"/></g></g></g><g id="g354" transform="translate(0,0)"><path id="path346" fill="none" d="M0,0h300v400h-300Z" class="background"/><g id="g352"><g id="g350" class="mark-line role-mark concat_1_layer_1_marks"><path id="path348" fill="none" stroke="#4c78a8" stroke-width="3" d="M300,247.8185816297224L200,252.977998989524L100,253.20148925536634L0,246.8528780798233"/></g></g></g><g id="g364" transform="translate(0,0)"><path id="path356" fill="none" d="M0,0h300v400h-300Z" class="background"/><g id="g362"><g id="g360" class="mark-line role-mark concat_1_layer_1_marks"><path id="path358" fill="none" stroke="#e45756" stroke-width="3" d="M300,169.65059813334017L200,181.56462197008477L100,181.61678262341576L0,185.90474745717168"/></g></g></g><g id="g374" transform="translate(0,0)"><path id="path366" fill="none" d="M0,0h300v400h-300Z" class="background"/><g id="g372"><g id="g370" class="mark-line role-mark concat_1_layer_1_marks"><path id="path368" fill="none" stroke="#f58518" stroke-width="3" d="M300,269.7458241196754L200,265.2680205175907L100,273.89912410436887L0,263.05573259314065"/></g></g></g><g id="g384" transform="translate(0,0)"><path id="path376" fill="none" d="M0,0h300v400h-300Z" class="background"/><g id="g382"><g id="g380" class="mark-line role-mark concat_1_layer_1_marks"><path id="path378" fill="none" stroke="#b279a2" stroke-width="3" d="M300,81.77394828194878L200,120.38068066133019L100,116.87541742803137L0,152.29193655104757"/></g></g></g></g><g id="g390" class="mark-text role-title" pointer-events="none"><text id="text388" fill="#000" font-family="sans-serif" font-size="13" font-weight="bold" opacity="1" text-anchor="middle" transform="translate(139,-14)">US</text></g><g id="g426" class="mark-group role-axis"><g id="g424" transform="translate(0.5,400.5)"><path id="path392" fill="none" d="M0,0h0v0h0Z" class="background" pointer-events="none"/><g id="g422"><g id="g402" class="mark-rule role-axis-tick" pointer-events="none"><line id="line394" x2="0" y2="5" fill="none" stroke="#888" stroke-width="1" opacity="1" transform="translate(0,0)"/><line id="line396" x2="0" y2="5" fill="none" stroke="#888" stroke-width="1" opacity="1" transform="translate(100,0)"/><line id="line398" x2="0" y2="5" fill="none" stroke="#888" stroke-width="1" opacity="1" transform="translate(200,0)"/><line id="line400" x2="0" y2="5" fill="none" stroke="#888" stroke-width="1" opacity="1" transform="translate(300,0)"/></g><g id="g412" class="mark-text role-axis-label" pointer-events="none"><text id="text404" fill="#000" font-family="sans-serif" font-size="12" opacity="1" text-anchor="middle" transform="translate(0,16)">2018-04</text><text id="text406" fill="#000" font-family="sans-serif" font-size="12" opacity="1" text-anchor="middle" transform="translate(100,16)">2018-05</text><text id="text408" fill="#000" font-family="sans-serif" font-size="12" opacity="1" text-anchor="middle" transform="translate(200,16)">2018-06</text><text id="text410" fill="#000" font-family="sans-serif" font-size="12" opacity="1" text-anchor="middle" transform="translate(300,16)">2018-07</text></g><g id="g416" class="mark-rule role-axis-domain" pointer-events="none"><line id="line414" x2="300" y2="0" fill="none" stroke="#888" stroke-width="1" opacity="1" transform="translate(0,0)"/></g><g id="g420" class="mark-text role-axis-title" pointer-events="none"><text id="text418" fill="#000" font-family="sans-serif" font-size="13" font-weight="bold" opacity="1" text-anchor="middle" transform="translate(150,33)">Month</text></g></g></g></g><g id="g502" class="mark-group role-axis"><g id="g500" transform="translate(0.5,0.5)"><path id="path428" fill="none" d="M0,0h0v0h0Z" class="background" pointer-events="none"/><g id="g498"><g id="g458" class="mark-rule role-axis-tick" pointer-events="none"><line id="line430" x2="-5" y2="0" fill="none" stroke="#888" stroke-width="1" opacity="1" transform="translate(0,400)"/><line id="line432" x2="-5" y2="0" fill="none" stroke="#888" stroke-width="1" opacity="1" transform="translate(0,369)"/><line id="line434" x2="-5" y2="0" fill="none" stroke="#888" stroke-width="1" opacity="1" transform="translate(0,338)"/><line id="line436" x2="-5" y2="0" fill="none" stroke="#888" stroke-width="1" opacity="1" transform="translate(0,308)"/><line id="line438" x2="-5" y2="0" fill="none" stroke="#888" stroke-width="1" opacity="1" transform="translate(0,277)"/><line id="line440" x2="-5" y2="0" fill="none" stroke="#888" stroke-width="1" opacity="1" transform="translate(0,246)"/><line id="line442" x2="-5" y2="0" fill="none" stroke="#888" stroke-width="1" opacity="1" transform="translate(0,215)"/><line id="line444" x2="-5" y2="0" fill="none" stroke="#888" stroke-width="1" opacity="1" transform="translate(0,185)"/><line id="line446" x2="-5" y2="0" fill="none" stroke="#888" stroke-width="1" opacity="1" transform="translate(0,154)"/><line id="line448" x2="-5" y2="0" fill="none" stroke="#888" stroke-width="1" opacity="1" transform="translate(0,123)"/><line id="line450" x2="-5" y2="0" fill="none" stroke="#888" stroke-width="1" opacity="1" transform="translate(0,92)"/><line id="line452" x2="-5" y2="0" fill="none" stroke="#888" stroke-width="1" opacity="1" transform="translate(0,62)"/><line id="line454" x2="-5" y2="0" fill="none" stroke="#888" stroke-width="1" opacity="1" transform="translate(0,31)"/><line id="line456" x2="-5" y2="0" fill="none" stroke="#888" stroke-width="1" opacity="1" transform="translate(0,0)"/></g><g id="g488" class="mark-text role-axis-label" pointer-events="none"><text id="text460" fill="#000" font-family="sans-serif" font-size="12" opacity="1" text-anchor="end" transform="translate(-7,404)">0</text><text id="text462" fill="#000" font-family="sans-serif" font-size="12" opacity="1" text-anchor="end" transform="translate(-7,373.2307692307692)">1</text><text id="text464" fill="#000" font-family="sans-serif" font-size="12" opacity="1" text-anchor="end" transform="translate(-7,342.46153846153845)">2</text><text id="text466" fill="#000" font-family="sans-serif" font-size="12" opacity="1" text-anchor="end" transform="translate(-7,311.6923076923077)">3</text><text id="text468" fill="#000" font-family="sans-serif" font-size="12" opacity="1" text-anchor="end" transform="translate(-7,280.9230769230769)">4</text><text id="text470" fill="#000" font-family="sans-serif" font-size="12" opacity="1" text-anchor="end" transform="translate(-7,250.15384615384613)">5</text><text id="text472" fill="#000" font-family="sans-serif" font-size="12" opacity="1" text-anchor="end" transform="translate(-7,219.3846153846154)">6</text><text id="text474" fill="#000" font-family="sans-serif" font-size="12" opacity="1" text-anchor="end" transform="translate(-7,188.6153846153846)">7</text><text id="text476" fill="#000" font-family="sans-serif" font-size="12" opacity="1" text-anchor="end" transform="translate(-7,157.84615384615384)">8</text><text id="text478" fill="#000" font-family="sans-serif" font-size="12" opacity="1" text-anchor="end" transform="translate(-7,127.0769230769231)">9</text><text id="text480" fill="#000" font-family="sans-serif" font-size="12" opacity="1" text-anchor="end" transform="translate(-7,96.30769230769226)">10</text><text id="text482" fill="#000" font-family="sans-serif" font-size="12" opacity="1" text-anchor="end" transform="translate(-7,65.53846153846155)">11</text><text id="text484" fill="#000" font-family="sans-serif" font-size="12" opacity="1" text-anchor="end" transform="translate(-7,34.769230769230774)">12</text><text id="text486" fill="#000" font-family="sans-serif" font-size="12" opacity="1" text-anchor="end" transform="translate(-7,4)">13</text></g><g id="g492" class="mark-rule role-axis-domain" pointer-events="none"><line id="line490" x2="0" y2="-400" fill="none" stroke="#888" stroke-width="1" opacity="1" transform="translate(0,400)"/></g><g id="g496" class="mark-text role-axis-title" pointer-events="none"><text id="text494" fill="#000" font-family="sans-serif" font-size="13" font-weight="bold" opacity="1" text-anchor="middle" transform="translate(-34,200) rotate(-90) translate(0,-3)">Mean number of trackers</text></g></g></g></g></g></g></g><g id="g642" class="mark-group role-legend" transform="translate(-23.9925,3.9525)"><g id="g640" transform="translate(734)"><path id="path510" fill="none" d="M 0,0 H 120 V 143 H 0 Z" class="background"/><g id="g638"><g id="g632" class="mark-group role-legend-entry"><g id="g630" transform="translate(0,18)"><path id="path512" fill="none" d="M 0,0 Z" class="background"/><g id="g628"><g id="g626" class="mark-group role-scope"><g id="g526" transform="translate(0,82.81625)"><path id="path514" fill="none" d="M 0,0 H 120 V 13 H 0 Z" class="background" opacity="1"/><g id="g524"><g id="g518" fill="#4c78a8" fill-opacity="1" class="mark-symbol role-legend-symbol"><path id="path516" fill="#4c78a8" fill-opacity="1" stroke="#4c78a8" stroke-width="1.5" d="M 5,0 A 5,5 0 1 1 -5,0 5,5 0 1 1 5,0" opacity="1" transform="translate(6,6)"/></g><g id="g522" class="mark-text role-legend-label"><text id="text520" fill="#000" font-family="sans-serif" font-size="12" opacity="1" text-anchor="start" transform="translate(16,10)">Adult</text></g></g></g><g id="g540" transform="translate(0,116)"><path id="path528" fill="none" d="M 0,0 H 120 V 13 H 0 Z" class="background" opacity="1"/><g id="g538"><g id="g532" fill="#f58518" fill-opacity="1" class="mark-symbol role-legend-symbol"><path id="path530" fill="#f58518" fill-opacity="1" stroke="#f58518" stroke-width="1.5" d="M 5,0 A 5,5 0 1 1 -5,0 5,5 0 1 1 5,0" opacity="1" transform="translate(6,6)"/></g><g id="g536" class="mark-text role-legend-label"><text id="text534" fill="#000" font-family="sans-serif" font-size="12" opacity="1" text-anchor="start" transform="translate(16,10)">Banking</text></g></g></g><g id="g554" transform="translate(0,70)"><path id="path542" fill="none" d="M 0,0 H 120 V 13 H 0 Z" class="background" opacity="1"/><g id="g552" transform="translate(0,-4)"><g id="g546" fill="#e45756" fill-opacity="1" class="mark-symbol role-legend-symbol"><path id="path544" fill="#e45756" fill-opacity="1" stroke="#e45756" stroke-width="1.5" d="M 5,0 A 5,5 0 1 1 -5,0 5,5 0 1 1 5,0" opacity="1" transform="translate(6,6)"/></g><g id="g550" class="mark-text role-legend-label"><text id="text548" fill="#000" font-family="sans-serif" font-size="12" opacity="1" text-anchor="start" transform="translate(16,10)">Business</text></g></g></g><g id="g568" transform="translate(0,32)"><path id="path556" fill="none" d="M 0,0 H 120 V 13 H 0 Z" class="background" opacity="1"/><g id="g566"><g id="g560" fill="#72b7b2" fill-opacity="1" class="mark-symbol role-legend-symbol"><path id="path558" fill="#72b7b2" fill-opacity="1" stroke="#72b7b2" stroke-width="1.5" d="M 5,0 A 5,5 0 1 1 -5,0 5,5 0 1 1 5,0" opacity="1" transform="translate(6,6)"/></g><g id="g564" class="mark-text role-legend-label"><text id="text562" fill="#000" font-family="sans-serif" font-size="12" opacity="1" text-anchor="start" transform="translate(16,10)">E-Commerce</text></g></g></g><g id="g582" transform="translate(0,48)"><path id="path570" fill="none" d="M 0,0 H 120 V 13 H 0 Z" class="background" opacity="1"/><g id="g580"><g id="g574" fill="#54a24b" fill-opacity="1" class="mark-symbol role-legend-symbol"><path id="path572" fill="#54a24b" fill-opacity="1" stroke="#54a24b" stroke-width="1.5" d="M 5,0 A 5,5 0 1 1 -5,0 5,5 0 1 1 5,0" opacity="1" transform="translate(6,6)"/></g><g id="g578" class="mark-text role-legend-label"><text id="text576" fill="#000" font-family="sans-serif" font-size="12" opacity="1" text-anchor="start" transform="translate(16,10)">Entertainment</text></g></g></g><g id="g596"><path id="path584" fill="none" d="M 0,0 H 120 V 13 H 0 Z" class="background" opacity="1"/><g id="g594"><g id="g588" fill="#eeca3b" fill-opacity="1" class="mark-symbol role-legend-symbol"><path id="path586" fill="#eeca3b" fill-opacity="1" stroke="#eeca3b" stroke-width="1.5" d="M 5,0 A 5,5 0 1 1 -5,0 5,5 0 1 1 5,0" opacity="1" transform="translate(6,6)"/></g><g id="g592" class="mark-text role-legend-label"><text id="text590" fill="#000" font-family="sans-serif" font-size="12" opacity="1" text-anchor="start" transform="translate(16,10)">News and Portals</text></g></g></g><g id="g610" transform="translate(0,16)"><path id="path598" fill="none" d="M 0,0 H 120 V 13 H 0 Z" class="background" opacity="1"/><g id="g608"><g id="g602" fill="#b279a2" fill-opacity="1" class="mark-symbol role-legend-symbol"><path id="path600" fill="#b279a2" fill-opacity="1" stroke="#b279a2" stroke-width="1.5" d="M 5,0 A 5,5 0 1 1 -5,0 5,5 0 1 1 5,0" opacity="1" transform="translate(6,6)"/></g><g id="g606" class="mark-text role-legend-label"><text id="text604" fill="#000" font-family="sans-serif" font-size="12" opacity="1" text-anchor="start" transform="translate(16,10)">Recreation</text></g></g></g><g id="g624" transform="translate(0,100)"><path id="path612" fill="none" d="M 0,0 H 120 V 13 H 0 Z" class="background" opacity="1"/><g id="g622"><g id="g616" fill="#ff9da6" fill-opacity="1" class="mark-symbol role-legend-symbol"><path id="path614" fill="#ff9da6" fill-opacity="1" stroke="#ff9da6" stroke-width="1.5" d="M 5,0 A 5,5 0 1 1 -5,0 5,5 0 1 1 5,0" opacity="1" transform="translate(6,6)"/></g><g id="g620" class="mark-text role-legend-label"><text id="text618" fill="#000" font-family="sans-serif" font-size="12" opacity="1" text-anchor="start" transform="translate(16,10)">Reference</text></g></g></g></g></g></g></g><g id="g636" class="mark-text role-legend-title"><text id="text634" fill="#000" font-family="sans-serif" font-size="13" font-weight="bold" opacity="1" text-anchor="start" transform="translate(0,10)">Category</text></g></g></g></g></g></g></g></g></svg>