<svg xmlns="http://www.w3.org/2000/svg" xmlns:xlink="http://www.w3.org/1999/xlink" width="800" height="600" class="main-svg" viewBox="0 0 800 600"><rect width="800" height="600" x="0" y="0" fill="#F5F6F9" fill-opacity="1"/><defs id="defs-1047ef"><g class="clips"><clipPath id="clip1047efxyplot" class="plotclip"><rect width="640" height="420"/></clipPath><clipPath id="clip1047efx" class="axesclip"><rect width="640" height="600" x="80" y="0"/></clipPath><clipPath id="clip1047efy" class="axesclip"><rect width="800" height="420" x="0" y="100"/></clipPath><clipPath id="clip1047efxy" class="axesclip"><rect width="640" height="420" x="80" y="100"/></clipPath></g></defs><g class="bglayer"><rect width="640" height="420" x="80" y="100" fill="#F5F6F9" fill-opacity="1" stroke-width="0" class="bg"/></g><g class="cartesianlayer"><g class="subplot xy"><g class="gridlayer"><g class="x"><path stroke="#E1E5ED" stroke-opacity="1" stroke-width="1" d="M0,100v420" class="xgrid crisp" transform="translate(253.06,0)"/><path stroke="#E1E5ED" stroke-opacity="1" stroke-width="1" d="M0,100v420" class="xgrid crisp" transform="translate(389.75,0)"/><path stroke="#E1E5ED" stroke-opacity="1" stroke-width="1" d="M0,100v420" class="xgrid crisp" transform="translate(526.44,0)"/><path stroke="#E1E5ED" stroke-opacity="1" stroke-width="1" d="M0,100v420" class="xgrid crisp" transform="translate(663.12,0)"/></g><g class="y"><path stroke="#E1E5ED" stroke-opacity="1" stroke-width="1" d="M80,0h640" class="ygrid crisp" transform="translate(0,456.62)"/><path stroke="#E1E5ED" stroke-opacity="1" stroke-width="1" d="M80,0h640" class="ygrid crisp" transform="translate(0,382.29)"/><path stroke="#E1E5ED" stroke-opacity="1" stroke-width="1" d="M80,0h640" class="ygrid crisp" transform="translate(0,307.95)"/><path stroke="#E1E5ED" stroke-opacity="1" stroke-width="1" d="M80,0h640" class="ygrid crisp" transform="translate(0,233.61)"/><path stroke="#E1E5ED" stroke-opacity="1" stroke-width="1" d="M80,0h640" class="ygrid crisp" transform="translate(0,159.27)"/></g></g><g class="zerolinelayer"><path stroke="#E1E5ED" stroke-opacity="1" stroke-width="1" d="M0,100v420" class="xzl zl crisp" transform="translate(116.38,0)"/></g><path class="xlines-below"/><path class="ylines-below"/><g class="plot" clip-path="url(#clip1047efxyplot)" transform="translate(80, 100)"><g class="scatterlayer mlayer"><g stroke-miterlimit="2" class="trace scatter trace371796" opacity="1"><g class="points"><path fill="#F93" fill-opacity="1" stroke-width="0" d="M3.5,0A3.5,3.5 0 1,1 0,-3.5A3.5,3.5 0 0,1 3.5,0Z" class="point" opacity="1" transform="translate(36.38,384.39)"/><path fill="#F93" fill-opacity="1" stroke-width="0" d="M3.5,0A3.5,3.5 0 1,1 0,-3.5A3.5,3.5 0 0,1 3.5,0Z" class="point" opacity="1" transform="translate(43.21,366.7)"/><path fill="#F93" fill-opacity="1" stroke-width="0" d="M3.5,0A3.5,3.5 0 1,1 0,-3.5A3.5,3.5 0 0,1 3.5,0Z" class="point" opacity="1" transform="translate(50.04,394.63)"/><path fill="#F93" fill-opacity="1" stroke-width="0" d="M3.5,0A3.5,3.5 0 1,1 0,-3.5A3.5,3.5 0 0,1 3.5,0Z" class="point" opacity="1" transform="translate(56.88,371.69)"/><path fill="#F93" fill-opacity="1" stroke-width="0" d="M3.5,0A3.5,3.5 0 1,1 0,-3.5A3.5,3.5 0 0,1 3.5,0Z" class="point" opacity="1" transform="translate(63.71,390.58)"/><path fill="#F93" fill-opacity="1" stroke-width="0" d="M3.5,0A3.5,3.5 0 1,1 0,-3.5A3.5,3.5 0 0,1 3.5,0Z" class="point" opacity="1" transform="translate(70.55,378.25)"/><path fill="#F93" fill-opacity="1" stroke-width="0" d="M3.5,0A3.5,3.5 0 1,1 0,-3.5A3.5,3.5 0 0,1 3.5,0Z" class="point" opacity="1" transform="translate(77.38,369.35)"/><path fill="#F93" fill-opacity="1" stroke-width="0" d="M3.5,0A3.5,3.5 0 1,1 0,-3.5A3.5,3.5 0 0,1 3.5,0Z" class="point" opacity="1" transform="translate(84.22,356.92)"/><path fill="#F93" fill-opacity="1" stroke-width="0" d="M3.5,0A3.5,3.5 0 1,1 0,-3.5A3.5,3.5 0 0,1 3.5,0Z" class="point" opacity="1" transform="translate(91.05,367.55)"/><path fill="#F93" fill-opacity="1" stroke-width="0" d="M3.5,0A3.5,3.5 0 1,1 0,-3.5A3.5,3.5 0 0,1 3.5,0Z" class="point" opacity="1" transform="translate(97.88,352.2)"/><path fill="#F93" fill-opacity="1" stroke-width="0" d="M3.5,0A3.5,3.5 0 1,1 0,-3.5A3.5,3.5 0 0,1 3.5,0Z" class="point" opacity="1" transform="translate(104.72,362.61)"/><path fill="#F93" fill-opacity="1" stroke-width="0" d="M3.5,0A3.5,3.5 0 1,1 0,-3.5A3.5,3.5 0 0,1 3.5,0Z" class="point" opacity="1" transform="translate(111.55,377.85)"/><path fill="#F93" fill-opacity="1" stroke-width="0" d="M3.5,0A3.5,3.5 0 1,1 0,-3.5A3.5,3.5 0 0,1 3.5,0Z" class="point" opacity="1" transform="translate(118.39,351.32)"/><path fill="#F93" fill-opacity="1" stroke-width="0" d="M3.5,0A3.5,3.5 0 1,1 0,-3.5A3.5,3.5 0 0,1 3.5,0Z" class="point" opacity="1" transform="translate(125.22,342.61)"/><path fill="#F93" fill-opacity="1" stroke-width="0" d="M3.5,0A3.5,3.5 0 1,1 0,-3.5A3.5,3.5 0 0,1 3.5,0Z" class="point" opacity="1" transform="translate(132.06,365.84)"/><path fill="#F93" fill-opacity="1" stroke-width="0" d="M3.5,0A3.5,3.5 0 1,1 0,-3.5A3.5,3.5 0 0,1 3.5,0Z" class="point" opacity="1" transform="translate(138.89,382.94)"/><path fill="#F93" fill-opacity="1" stroke-width="0" d="M3.5,0A3.5,3.5 0 1,1 0,-3.5A3.5,3.5 0 0,1 3.5,0Z" class="point" opacity="1" transform="translate(145.72,322.29)"/><path fill="#F93" fill-opacity="1" stroke-width="0" d="M3.5,0A3.5,3.5 0 1,1 0,-3.5A3.5,3.5 0 0,1 3.5,0Z" class="point" opacity="1" transform="translate(152.56,357.55)"/><path fill="#F93" fill-opacity="1" stroke-width="0" d="M3.5,0A3.5,3.5 0 1,1 0,-3.5A3.5,3.5 0 0,1 3.5,0Z" class="point" opacity="1" transform="translate(159.39,350.76)"/><path fill="#F93" fill-opacity="1" stroke-width="0" d="M3.5,0A3.5,3.5 0 1,1 0,-3.5A3.5,3.5 0 0,1 3.5,0Z" class="point" opacity="1" transform="translate(166.23,358.72)"/><path fill="#F93" fill-opacity="1" stroke-width="0" d="M3.5,0A3.5,3.5 0 1,1 0,-3.5A3.5,3.5 0 0,1 3.5,0Z" class="point" opacity="1" transform="translate(173.06,345.31)"/><path fill="#F93" fill-opacity="1" stroke-width="0" d="M3.5,0A3.5,3.5 0 1,1 0,-3.5A3.5,3.5 0 0,1 3.5,0Z" class="point" opacity="1" transform="translate(179.9,359.57)"/><path fill="#F93" fill-opacity="1" stroke-width="0" d="M3.5,0A3.5,3.5 0 1,1 0,-3.5A3.5,3.5 0 0,1 3.5,0Z" class="point" opacity="1" transform="translate(186.73,351.34)"/><path fill="#F93" fill-opacity="1" stroke-width="0" d="M3.5,0A3.5,3.5 0 1,1 0,-3.5A3.5,3.5 0 0,1 3.5,0Z" class="point" opacity="1" transform="translate(193.56,347.4)"/><path fill="#F93" fill-opacity="1" stroke-width="0" d="M3.5,0A3.5,3.5 0 1,1 0,-3.5A3.5,3.5 0 0,1 3.5,0Z" class="point" opacity="1" transform="translate(200.4,346.74)"/><path fill="#F93" fill-opacity="1" stroke-width="0" d="M3.5,0A3.5,3.5 0 1,1 0,-3.5A3.5,3.5 0 0,1 3.5,0Z" class="point" opacity="1" transform="translate(207.23,337.67)"/><path fill="#F93" fill-opacity="1" stroke-width="0" d="M3.5,0A3.5,3.5 0 1,1 0,-3.5A3.5,3.5 0 0,1 3.5,0Z" class="point" opacity="1" transform="translate(214.07,324.92)"/><path fill="#F93" fill-opacity="1" stroke-width="0" d="M3.5,0A3.5,3.5 0 1,1 0,-3.5A3.5,3.5 0 0,1 3.5,0Z" class="point" opacity="1" transform="translate(220.9,293.81)"/><path fill="#F93" fill-opacity="1" stroke-width="0" d="M3.5,0A3.5,3.5 0 1,1 0,-3.5A3.5,3.5 0 0,1 3.5,0Z" class="point" opacity="1" transform="translate(227.74,340.14)"/><path fill="#F93" fill-opacity="1" stroke-width="0" d="M3.5,0A3.5,3.5 0 1,1 0,-3.5A3.5,3.5 0 0,1 3.5,0Z" class="point" opacity="1" transform="translate(234.57,292.69)"/><path fill="#F93" fill-opacity="1" stroke-width="0" d="M3.5,0A3.5,3.5 0 1,1 0,-3.5A3.5,3.5 0 0,1 3.5,0Z" class="point" opacity="1" transform="translate(241.41,325.72)"/><path fill="#F93" fill-opacity="1" stroke-width="0" d="M3.5,0A3.5,3.5 0 1,1 0,-3.5A3.5,3.5 0 0,1 3.5,0Z" class="point" opacity="1" transform="translate(248.24,353.11)"/><path fill="#F93" fill-opacity="1" stroke-width="0" d="M3.5,0A3.5,3.5 0 1,1 0,-3.5A3.5,3.5 0 0,1 3.5,0Z" class="point" opacity="1" transform="translate(261.91,326.44)"/><path fill="#F93" fill-opacity="1" stroke-width="0" d="M3.5,0A3.5,3.5 0 1,1 0,-3.5A3.5,3.5 0 0,1 3.5,0Z" class="point" opacity="1" transform="translate(268.74,271.94)"/><path fill="#F93" fill-opacity="1" stroke-width="0" d="M3.5,0A3.5,3.5 0 1,1 0,-3.5A3.5,3.5 0 0,1 3.5,0Z" class="point" opacity="1" transform="translate(275.58,303.1)"/><path fill="#F93" fill-opacity="1" stroke-width="0" d="M3.5,0A3.5,3.5 0 1,1 0,-3.5A3.5,3.5 0 0,1 3.5,0Z" class="point" opacity="1" transform="translate(282.41,301.69)"/><path fill="#F93" fill-opacity="1" stroke-width="0" d="M3.5,0A3.5,3.5 0 1,1 0,-3.5A3.5,3.5 0 0,1 3.5,0Z" class="point" opacity="1" transform="translate(289.25,286.89)"/><path fill="#F93" fill-opacity="1" stroke-width="0" d="M3.5,0A3.5,3.5 0 1,1 0,-3.5A3.5,3.5 0 0,1 3.5,0Z" class="point" opacity="1" transform="translate(296.08,266.1)"/><path fill="#F93" fill-opacity="1" stroke-width="0" d="M3.5,0A3.5,3.5 0 1,1 0,-3.5A3.5,3.5 0 0,1 3.5,0Z" class="point" opacity="1" transform="translate(302.91,292.63)"/><path fill="#F93" fill-opacity="1" stroke-width="0" d="M3.5,0A3.5,3.5 0 1,1 0,-3.5A3.5,3.5 0 0,1 3.5,0Z" class="point" opacity="1" transform="translate(309.75,274.96)"/><path fill="#F93" fill-opacity="1" stroke-width="0" d="M3.5,0A3.5,3.5 0 1,1 0,-3.5A3.5,3.5 0 0,1 3.5,0Z" class="point" opacity="1" transform="translate(316.58,299.61)"/><path fill="#F93" fill-opacity="1" stroke-width="0" d="M3.5,0A3.5,3.5 0 1,1 0,-3.5A3.5,3.5 0 0,1 3.5,0Z" class="point" opacity="1" transform="translate(323.42,300.91)"/><path fill="#F93" fill-opacity="1" stroke-width="0" d="M3.5,0A3.5,3.5 0 1,1 0,-3.5A3.5,3.5 0 0,1 3.5,0Z" class="point" opacity="1" transform="translate(330.25,252.92)"/><path fill="#F93" fill-opacity="1" stroke-width="0" d="M3.5,0A3.5,3.5 0 1,1 0,-3.5A3.5,3.5 0 0,1 3.5,0Z" class="point" opacity="1" transform="translate(337.09,310.09)"/><path fill="#F93" fill-opacity="1" stroke-width="0" d="M3.5,0A3.5,3.5 0 1,1 0,-3.5A3.5,3.5 0 0,1 3.5,0Z" class="point" opacity="1" transform="translate(343.92,302.29)"/><path fill="#F93" fill-opacity="1" stroke-width="0" d="M3.5,0A3.5,3.5 0 1,1 0,-3.5A3.5,3.5 0 0,1 3.5,0Z" class="point" opacity="1" transform="translate(350.75,273.57)"/><path fill="#F93" fill-opacity="1" stroke-width="0" d="M3.5,0A3.5,3.5 0 1,1 0,-3.5A3.5,3.5 0 0,1 3.5,0Z" class="point" opacity="1" transform="translate(357.59,221.22)"/><path fill="#F93" fill-opacity="1" stroke-width="0" d="M3.5,0A3.5,3.5 0 1,1 0,-3.5A3.5,3.5 0 0,1 3.5,0Z" class="point" opacity="1" transform="translate(364.42,257.64)"/><path fill="#F93" fill-opacity="1" stroke-width="0" d="M3.5,0A3.5,3.5 0 1,1 0,-3.5A3.5,3.5 0 0,1 3.5,0Z" class="point" opacity="1" transform="translate(371.26,252.55)"/><path fill="#F93" fill-opacity="1" stroke-width="0" d="M3.5,0A3.5,3.5 0 1,1 0,-3.5A3.5,3.5 0 0,1 3.5,0Z" class="point" opacity="1" transform="translate(378.09,217.29)"/><path fill="#F93" fill-opacity="1" stroke-width="0" d="M3.5,0A3.5,3.5 0 1,1 0,-3.5A3.5,3.5 0 0,1 3.5,0Z" class="point" opacity="1" transform="translate(391.76,223.56)"/><path fill="#F93" fill-opacity="1" stroke-width="0" d="M3.5,0A3.5,3.5 0 1,1 0,-3.5A3.5,3.5 0 0,1 3.5,0Z" class="point" opacity="1" transform="translate(398.59,225.79)"/><path fill="#F93" fill-opacity="1" stroke-width="0" d="M3.5,0A3.5,3.5 0 1,1 0,-3.5A3.5,3.5 0 0,1 3.5,0Z" class="point" opacity="1" transform="translate(405.43,223.6)"/><path fill="#F93" fill-opacity="1" stroke-width="0" d="M3.5,0A3.5,3.5 0 1,1 0,-3.5A3.5,3.5 0 0,1 3.5,0Z" class="point" opacity="1" transform="translate(412.26,269.84)"/><path fill="#F93" fill-opacity="1" stroke-width="0" d="M3.5,0A3.5,3.5 0 1,1 0,-3.5A3.5,3.5 0 0,1 3.5,0Z" class="point" opacity="1" transform="translate(425.93,214.43)"/><path fill="#F93" fill-opacity="1" stroke-width="0" d="M3.5,0A3.5,3.5 0 1,1 0,-3.5A3.5,3.5 0 0,1 3.5,0Z" class="point" opacity="1" transform="translate(432.77,239.32)"/><path fill="#F93" fill-opacity="1" stroke-width="0" d="M3.5,0A3.5,3.5 0 1,1 0,-3.5A3.5,3.5 0 0,1 3.5,0Z" class="point" opacity="1" transform="translate(446.44,281.39)"/><path fill="#F93" fill-opacity="1" stroke-width="0" d="M3.5,0A3.5,3.5 0 1,1 0,-3.5A3.5,3.5 0 0,1 3.5,0Z" class="point" opacity="1" transform="translate(453.27,74.59)"/><path fill="#F93" fill-opacity="1" stroke-width="0" d="M3.5,0A3.5,3.5 0 1,1 0,-3.5A3.5,3.5 0 0,1 3.5,0Z" class="point" opacity="1" transform="translate(466.94,134.57)"/><path fill="#F93" fill-opacity="1" stroke-width="0" d="M3.5,0A3.5,3.5 0 1,1 0,-3.5A3.5,3.5 0 0,1 3.5,0Z" class="point" opacity="1" transform="translate(473.77,193)"/><path fill="#F93" fill-opacity="1" stroke-width="0" d="M3.5,0A3.5,3.5 0 1,1 0,-3.5A3.5,3.5 0 0,1 3.5,0Z" class="point" opacity="1" transform="translate(480.61,97.74)"/><path fill="#F93" fill-opacity="1" stroke-width="0" d="M3.5,0A3.5,3.5 0 1,1 0,-3.5A3.5,3.5 0 0,1 3.5,0Z" class="point" opacity="1" transform="translate(487.44,200.66)"/><path fill="#F93" fill-opacity="1" stroke-width="0" d="M3.5,0A3.5,3.5 0 1,1 0,-3.5A3.5,3.5 0 0,1 3.5,0Z" class="point" opacity="1" transform="translate(494.28,123.82)"/><path fill="#F93" fill-opacity="1" stroke-width="0" d="M3.5,0A3.5,3.5 0 1,1 0,-3.5A3.5,3.5 0 0,1 3.5,0Z" class="point" opacity="1" transform="translate(501.11,233.22)"/><path fill="#F93" fill-opacity="1" stroke-width="0" d="M3.5,0A3.5,3.5 0 1,1 0,-3.5A3.5,3.5 0 0,1 3.5,0Z" class="point" opacity="1" transform="translate(507.94,132.12)"/><path fill="#F93" fill-opacity="1" stroke-width="0" d="M3.5,0A3.5,3.5 0 1,1 0,-3.5A3.5,3.5 0 0,1 3.5,0Z" class="point" opacity="1" transform="translate(514.78,101.89)"/><path fill="#F93" fill-opacity="1" stroke-width="0" d="M3.5,0A3.5,3.5 0 1,1 0,-3.5A3.5,3.5 0 0,1 3.5,0Z" class="point" opacity="1" transform="translate(528.45,29.66)"/><path fill="#F93" fill-opacity="1" stroke-width="0" d="M3.5,0A3.5,3.5 0 1,1 0,-3.5A3.5,3.5 0 0,1 3.5,0Z" class="point" opacity="1" transform="translate(535.28,61.26)"/><path fill="#F93" fill-opacity="1" stroke-width="0" d="M3.5,0A3.5,3.5 0 1,1 0,-3.5A3.5,3.5 0 0,1 3.5,0Z" class="point" opacity="1" transform="translate(548.95,249.39)"/><path fill="#F93" fill-opacity="1" stroke-width="0" d="M3.5,0A3.5,3.5 0 1,1 0,-3.5A3.5,3.5 0 0,1 3.5,0Z" class="point" opacity="1" transform="translate(562.62,25.38)"/><path fill="#F93" fill-opacity="1" stroke-width="0" d="M3.5,0A3.5,3.5 0 1,1 0,-3.5A3.5,3.5 0 0,1 3.5,0Z" class="point" opacity="1" transform="translate(603.63,99.56)"/></g></g></g></g><path fill="none" d="M0,0" class="xlines-above crisp"/><path fill="none" d="M0,0" class="ylines-above crisp"/><g class="xaxislayer-above"><g class="xtick"><text style="white-space:pre" x="0" y="533" fill="#4D5663" fill-opacity="1" font-family="TOBESTRIPPEDOpen SansTOBESTRIPPED, verdana, arial, sans-serif" font-size="12" text-anchor="middle" transform="translate(116.38,0)">0</text></g><g class="xtick"><text style="white-space:pre" x="0" y="533" fill="#4D5663" fill-opacity="1" font-family="TOBESTRIPPEDOpen SansTOBESTRIPPED, verdana, arial, sans-serif" font-size="12" text-anchor="middle" transform="translate(253.06,0)">20</text></g><g class="xtick"><text style="white-space:pre" x="0" y="533" fill="#4D5663" fill-opacity="1" font-family="TOBESTRIPPEDOpen SansTOBESTRIPPED, verdana, arial, sans-serif" font-size="12" text-anchor="middle" transform="translate(389.75,0)">40</text></g><g class="xtick"><text style="white-space:pre" x="0" y="533" fill="#4D5663" fill-opacity="1" font-family="TOBESTRIPPEDOpen SansTOBESTRIPPED, verdana, arial, sans-serif" font-size="12" text-anchor="middle" transform="translate(526.44,0)">60</text></g><g class="xtick"><text style="white-space:pre" x="0" y="533" fill="#4D5663" fill-opacity="1" font-family="TOBESTRIPPEDOpen SansTOBESTRIPPED, verdana, arial, sans-serif" font-size="12" text-anchor="middle" transform="translate(663.12,0)">80</text></g></g><g class="yaxislayer-above"><g class="ytick"><text style="white-space:pre" x="79" y="4.2" fill="#4D5663" fill-opacity="1" font-family="TOBESTRIPPEDOpen SansTOBESTRIPPED, verdana, arial, sans-serif" font-size="12" text-anchor="end" transform="translate(0,456.62)">10</text></g><g class="ytick"><text style="white-space:pre" x="79" y="4.2" fill="#4D5663" fill-opacity="1" font-family="TOBESTRIPPEDOpen SansTOBESTRIPPED, verdana, arial, sans-serif" font-size="12" text-anchor="end" transform="translate(0,382.29)">20</text></g><g class="ytick"><text style="white-space:pre" x="79" y="4.2" fill="#4D5663" fill-opacity="1" font-family="TOBESTRIPPEDOpen SansTOBESTRIPPED, verdana, arial, sans-serif" font-size="12" text-anchor="end" transform="translate(0,307.95)">30</text></g><g class="ytick"><text style="white-space:pre" x="79" y="4.2" fill="#4D5663" fill-opacity="1" font-family="TOBESTRIPPEDOpen SansTOBESTRIPPED, verdana, arial, sans-serif" font-size="12" text-anchor="end" transform="translate(0,233.61)">40</text></g><g class="ytick"><text style="white-space:pre" x="79" y="4.2" fill="#4D5663" fill-opacity="1" font-family="TOBESTRIPPEDOpen SansTOBESTRIPPED, verdana, arial, sans-serif" font-size="12" text-anchor="end" transform="translate(0,159.27)">50</text></g></g></g></g><g class="infolayer"><g class="g-gtitle"><text x="400" y="50" fill="#4D5663" class="gtitle" font-family="TOBESTRIPPEDOpen SansTOBESTRIPPED, verdana, arial, sans-serif" font-size="17" font-weight="normal" opacity="1" text-anchor="middle" style="white-space:pre">Relationship between number of trackers and average page latency</text></g><g class="g-xtitle"><text x="400" y="572" fill="#4D5663" class="xtitle" font-family="TOBESTRIPPEDOpen SansTOBESTRIPPED, verdana, arial, sans-serif" font-size="14" font-weight="normal" opacity="1" text-anchor="middle" style="white-space:pre">Number of Trackers</text></g><g class="g-ytitle"><text x="42" y="310" fill="#4D5663" class="ytitle" font-family="TOBESTRIPPEDOpen SansTOBESTRIPPED, verdana, arial, sans-serif" font-size="14" font-weight="normal" opacity="1" text-anchor="middle" transform="rotate(-90,42,310)" style="white-space:pre">Average page load (sec)</text></g></g></svg>