<svg xmlns="http://www.w3.org/2000/svg" xmlns:xlink="http://www.w3.org/1999/xlink" width="800" height="600" class="main-svg" viewBox="0 0 800 600"><rect width="800" height="600" x="0" y="0" fill="#F5F6F9" fill-opacity="1"/><defs id="defs-6a65b0"><g class="clips"><clipPath id="clip6a65b0xyplot" class="plotclip"><rect width="640" height="420"/></clipPath><clipPath id="clip6a65b0x" class="axesclip"><rect width="640" height="600" x="80" y="0"/></clipPath><clipPath id="clip6a65b0y" class="axesclip"><rect width="800" height="420" x="0" y="100"/></clipPath><clipPath id="clip6a65b0xy" class="axesclip"><rect width="640" height="420" x="80" y="100"/></clipPath></g></defs><g class="bglayer"><rect width="640" height="420" x="80" y="100" fill="#F5F6F9" fill-opacity="1" stroke-width="0" class="bg"/></g><g class="cartesianlayer"><g class="subplot xy"><g class="gridlayer"><g class="x"><path stroke="#E5E6E9" stroke-opacity="1" stroke-width="1" d="M0,100v420" class="xgrid crisp" transform="translate(253.06,0)"/><path stroke="#E5E6E9" stroke-opacity="1" stroke-width="1" d="M0,100v420" class="xgrid crisp" transform="translate(389.75,0)"/><path stroke="#E5E6E9" stroke-opacity="1" stroke-width="1" d="M0,100v420" class="xgrid crisp" transform="translate(526.44,0)"/><path stroke="#E5E6E9" stroke-opacity="1" stroke-width="1" d="M0,100v420" class="xgrid crisp" transform="translate(663.12,0)"/></g><g class="y"><path stroke="#E5E6E9" stroke-opacity="1" stroke-width="1" d="M80,0h640" class="ygrid crisp" transform="translate(0,507.91)"/><path stroke="#E5E6E9" stroke-opacity="1" stroke-width="1" d="M80,0h640" class="ygrid crisp" transform="translate(0,431.38)"/><path stroke="#E5E6E9" stroke-opacity="1" stroke-width="1" d="M80,0h640" class="ygrid crisp" transform="translate(0,354.85)"/><path stroke="#E5E6E9" stroke-opacity="1" stroke-width="1" d="M80,0h640" class="ygrid crisp" transform="translate(0,278.33000000000004)"/><path stroke="#E5E6E9" stroke-opacity="1" stroke-width="1" d="M80,0h640" class="ygrid crisp" transform="translate(0,201.8)"/><path stroke="#E5E6E9" stroke-opacity="1" stroke-width="1" d="M80,0h640" class="ygrid crisp" transform="translate(0,125.27)"/></g></g><g class="zerolinelayer"><path stroke="#444" stroke-opacity="1" stroke-width="1" d="M0,100v420" class="xzl zl crisp" transform="translate(116.38,0)"/></g><path class="xlines-below"/><path class="ylines-below"/><g class="plot" clip-path="url(#clip6a65b0xyplot)" transform="translate(80, 100)"><g class="scatterlayer mlayer"><g stroke-miterlimit="2" class="trace scatter trace6c8162" opacity="1"><g class="points"><path fill="#1F77B4" fill-opacity="1" stroke-width="0" d="M3.5,0A3.5,3.5 0 1,1 0,-3.5A3.5,3.5 0 0,1 3.5,0Z" class="point" opacity="1" transform="translate(36.38,356.65)"/><path fill="#1F77B4" fill-opacity="1" stroke-width="0" d="M3.5,0A3.5,3.5 0 1,1 0,-3.5A3.5,3.5 0 0,1 3.5,0Z" class="point" opacity="1" transform="translate(43.21,307.36)"/><path fill="#1F77B4" fill-opacity="1" stroke-width="0" d="M3.5,0A3.5,3.5 0 1,1 0,-3.5A3.5,3.5 0 0,1 3.5,0Z" class="point" opacity="1" transform="translate(50.04,394.63)"/><path fill="#1F77B4" fill-opacity="1" stroke-width="0" d="M3.5,0A3.5,3.5 0 1,1 0,-3.5A3.5,3.5 0 0,1 3.5,0Z" class="point" opacity="1" transform="translate(56.88,319.75)"/><path fill="#1F77B4" fill-opacity="1" stroke-width="0" d="M3.5,0A3.5,3.5 0 1,1 0,-3.5A3.5,3.5 0 0,1 3.5,0Z" class="point" opacity="1" transform="translate(63.71,378.46)"/><path fill="#1F77B4" fill-opacity="1" stroke-width="0" d="M3.5,0A3.5,3.5 0 1,1 0,-3.5A3.5,3.5 0 0,1 3.5,0Z" class="point" opacity="1" transform="translate(70.55,337.68)"/><path fill="#1F77B4" fill-opacity="1" stroke-width="0" d="M3.5,0A3.5,3.5 0 1,1 0,-3.5A3.5,3.5 0 0,1 3.5,0Z" class="point" opacity="1" transform="translate(77.38,313.82)"/><path fill="#1F77B4" fill-opacity="1" stroke-width="0" d="M3.5,0A3.5,3.5 0 1,1 0,-3.5A3.5,3.5 0 0,1 3.5,0Z" class="point" opacity="1" transform="translate(84.22,285.68)"/><path fill="#1F77B4" fill-opacity="1" stroke-width="0" d="M3.5,0A3.5,3.5 0 1,1 0,-3.5A3.5,3.5 0 0,1 3.5,0Z" class="point" opacity="1" transform="translate(91.05,309.4)"/><path fill="#1F77B4" fill-opacity="1" stroke-width="0" d="M3.5,0A3.5,3.5 0 1,1 0,-3.5A3.5,3.5 0 0,1 3.5,0Z" class="point" opacity="1" transform="translate(97.88,276.22)"/><path fill="#1F77B4" fill-opacity="1" stroke-width="0" d="M3.5,0A3.5,3.5 0 1,1 0,-3.5A3.5,3.5 0 0,1 3.5,0Z" class="point" opacity="1" transform="translate(104.72,297.91)"/><path fill="#1F77B4" fill-opacity="1" stroke-width="0" d="M3.5,0A3.5,3.5 0 1,1 0,-3.5A3.5,3.5 0 0,1 3.5,0Z" class="point" opacity="1" transform="translate(111.55,336.53)"/><path fill="#1F77B4" fill-opacity="1" stroke-width="0" d="M3.5,0A3.5,3.5 0 1,1 0,-3.5A3.5,3.5 0 0,1 3.5,0Z" class="point" opacity="1" transform="translate(118.39,274.53)"/><path fill="#1F77B4" fill-opacity="1" stroke-width="0" d="M3.5,0A3.5,3.5 0 1,1 0,-3.5A3.5,3.5 0 0,1 3.5,0Z" class="point" opacity="1" transform="translate(125.22,258.64)"/><path fill="#1F77B4" fill-opacity="1" stroke-width="0" d="M3.5,0A3.5,3.5 0 1,1 0,-3.5A3.5,3.5 0 0,1 3.5,0Z" class="point" opacity="1" transform="translate(132.06,305.33)"/><path fill="#1F77B4" fill-opacity="1" stroke-width="0" d="M3.5,0A3.5,3.5 0 1,1 0,-3.5A3.5,3.5 0 0,1 3.5,0Z" class="point" opacity="1" transform="translate(138.89,351.95)"/><path fill="#1F77B4" fill-opacity="1" stroke-width="0" d="M3.5,0A3.5,3.5 0 1,1 0,-3.5A3.5,3.5 0 0,1 3.5,0Z" class="point" opacity="1" transform="translate(145.72,226.96)"/><path fill="#1F77B4" fill-opacity="1" stroke-width="0" d="M3.5,0A3.5,3.5 0 1,1 0,-3.5A3.5,3.5 0 0,1 3.5,0Z" class="point" opacity="1" transform="translate(152.56,286.99)"/><path fill="#1F77B4" fill-opacity="1" stroke-width="0" d="M3.5,0A3.5,3.5 0 1,1 0,-3.5A3.5,3.5 0 0,1 3.5,0Z" class="point" opacity="1" transform="translate(159.39,273.45)"/><path fill="#1F77B4" fill-opacity="1" stroke-width="0" d="M3.5,0A3.5,3.5 0 1,1 0,-3.5A3.5,3.5 0 0,1 3.5,0Z" class="point" opacity="1" transform="translate(166.23,289.44)"/><path fill="#1F77B4" fill-opacity="1" stroke-width="0" d="M3.5,0A3.5,3.5 0 1,1 0,-3.5A3.5,3.5 0 0,1 3.5,0Z" class="point" opacity="1" transform="translate(173.06,263.38)"/><path fill="#1F77B4" fill-opacity="1" stroke-width="0" d="M3.5,0A3.5,3.5 0 1,1 0,-3.5A3.5,3.5 0 0,1 3.5,0Z" class="point" opacity="1" transform="translate(179.9,291.27)"/><path fill="#1F77B4" fill-opacity="1" stroke-width="0" d="M3.5,0A3.5,3.5 0 1,1 0,-3.5A3.5,3.5 0 0,1 3.5,0Z" class="point" opacity="1" transform="translate(186.73,274.56)"/><path fill="#1F77B4" fill-opacity="1" stroke-width="0" d="M3.5,0A3.5,3.5 0 1,1 0,-3.5A3.5,3.5 0 0,1 3.5,0Z" class="point" opacity="1" transform="translate(193.56,267.16)"/><path fill="#1F77B4" fill-opacity="1" stroke-width="0" d="M3.5,0A3.5,3.5 0 1,1 0,-3.5A3.5,3.5 0 0,1 3.5,0Z" class="point" opacity="1" transform="translate(200.4,265.96)"/><path fill="#1F77B4" fill-opacity="1" stroke-width="0" d="M3.5,0A3.5,3.5 0 1,1 0,-3.5A3.5,3.5 0 0,1 3.5,0Z" class="point" opacity="1" transform="translate(207.23,250.31)"/><path fill="#1F77B4" fill-opacity="1" stroke-width="0" d="M3.5,0A3.5,3.5 0 1,1 0,-3.5A3.5,3.5 0 0,1 3.5,0Z" class="point" opacity="1" transform="translate(214.07,230.7)"/><path fill="#1F77B4" fill-opacity="1" stroke-width="0" d="M3.5,0A3.5,3.5 0 1,1 0,-3.5A3.5,3.5 0 0,1 3.5,0Z" class="point" opacity="1" transform="translate(220.9,191.33)"/><path fill="#1F77B4" fill-opacity="1" stroke-width="0" d="M3.5,0A3.5,3.5 0 1,1 0,-3.5A3.5,3.5 0 0,1 3.5,0Z" class="point" opacity="1" transform="translate(227.74,254.41)"/><path fill="#1F77B4" fill-opacity="1" stroke-width="0" d="M3.5,0A3.5,3.5 0 1,1 0,-3.5A3.5,3.5 0 0,1 3.5,0Z" class="point" opacity="1" transform="translate(234.57,190.09)"/><path fill="#1F77B4" fill-opacity="1" stroke-width="0" d="M3.5,0A3.5,3.5 0 1,1 0,-3.5A3.5,3.5 0 0,1 3.5,0Z" class="point" opacity="1" transform="translate(241.41,231.86)"/><path fill="#1F77B4" fill-opacity="1" stroke-width="0" d="M3.5,0A3.5,3.5 0 1,1 0,-3.5A3.5,3.5 0 0,1 3.5,0Z" class="point" opacity="1" transform="translate(248.24,278.01)"/><path fill="#1F77B4" fill-opacity="1" stroke-width="0" d="M3.5,0A3.5,3.5 0 1,1 0,-3.5A3.5,3.5 0 0,1 3.5,0Z" class="point" opacity="1" transform="translate(261.91,232.9)"/><path fill="#1F77B4" fill-opacity="1" stroke-width="0" d="M3.5,0A3.5,3.5 0 1,1 0,-3.5A3.5,3.5 0 0,1 3.5,0Z" class="point" opacity="1" transform="translate(268.74,168.68)"/><path fill="#1F77B4" fill-opacity="1" stroke-width="0" d="M3.5,0A3.5,3.5 0 1,1 0,-3.5A3.5,3.5 0 0,1 3.5,0Z" class="point" opacity="1" transform="translate(275.58,202.06)"/><path fill="#1F77B4" fill-opacity="1" stroke-width="0" d="M3.5,0A3.5,3.5 0 1,1 0,-3.5A3.5,3.5 0 0,1 3.5,0Z" class="point" opacity="1" transform="translate(282.41,200.39)"/><path fill="#1F77B4" fill-opacity="1" stroke-width="0" d="M3.5,0A3.5,3.5 0 1,1 0,-3.5A3.5,3.5 0 0,1 3.5,0Z" class="point" opacity="1" transform="translate(289.25,183.79)"/><path fill="#1F77B4" fill-opacity="1" stroke-width="0" d="M3.5,0A3.5,3.5 0 1,1 0,-3.5A3.5,3.5 0 0,1 3.5,0Z" class="point" opacity="1" transform="translate(296.08,163.16)"/><path fill="#1F77B4" fill-opacity="1" stroke-width="0" d="M3.5,0A3.5,3.5 0 1,1 0,-3.5A3.5,3.5 0 0,1 3.5,0Z" class="point" opacity="1" transform="translate(302.91,190.01)"/><path fill="#1F77B4" fill-opacity="1" stroke-width="0" d="M3.5,0A3.5,3.5 0 1,1 0,-3.5A3.5,3.5 0 0,1 3.5,0Z" class="point" opacity="1" transform="translate(309.75,171.62)"/><path fill="#1F77B4" fill-opacity="1" stroke-width="0" d="M3.5,0A3.5,3.5 0 1,1 0,-3.5A3.5,3.5 0 0,1 3.5,0Z" class="point" opacity="1" transform="translate(316.58,197.94)"/><path fill="#1F77B4" fill-opacity="1" stroke-width="0" d="M3.5,0A3.5,3.5 0 1,1 0,-3.5A3.5,3.5 0 0,1 3.5,0Z" class="point" opacity="1" transform="translate(323.42,199.46)"/><path fill="#1F77B4" fill-opacity="1" stroke-width="0" d="M3.5,0A3.5,3.5 0 1,1 0,-3.5A3.5,3.5 0 0,1 3.5,0Z" class="point" opacity="1" transform="translate(330.25,151.39)"/><path fill="#1F77B4" fill-opacity="1" stroke-width="0" d="M3.5,0A3.5,3.5 0 1,1 0,-3.5A3.5,3.5 0 0,1 3.5,0Z" class="point" opacity="1" transform="translate(337.09,210.67)"/><path fill="#1F77B4" fill-opacity="1" stroke-width="0" d="M3.5,0A3.5,3.5 0 1,1 0,-3.5A3.5,3.5 0 0,1 3.5,0Z" class="point" opacity="1" transform="translate(343.92,201.1)"/><path fill="#1F77B4" fill-opacity="1" stroke-width="0" d="M3.5,0A3.5,3.5 0 1,1 0,-3.5A3.5,3.5 0 0,1 3.5,0Z" class="point" opacity="1" transform="translate(350.75,170.26)"/><path fill="#1F77B4" fill-opacity="1" stroke-width="0" d="M3.5,0A3.5,3.5 0 1,1 0,-3.5A3.5,3.5 0 0,1 3.5,0Z" class="point" opacity="1" transform="translate(357.59,126.31)"/><path fill="#1F77B4" fill-opacity="1" stroke-width="0" d="M3.5,0A3.5,3.5 0 1,1 0,-3.5A3.5,3.5 0 0,1 3.5,0Z" class="point" opacity="1" transform="translate(364.42,155.51)"/><path fill="#1F77B4" fill-opacity="1" stroke-width="0" d="M3.5,0A3.5,3.5 0 1,1 0,-3.5A3.5,3.5 0 0,1 3.5,0Z" class="point" opacity="1" transform="translate(371.26,151.07)"/><path fill="#1F77B4" fill-opacity="1" stroke-width="0" d="M3.5,0A3.5,3.5 0 1,1 0,-3.5A3.5,3.5 0 0,1 3.5,0Z" class="point" opacity="1" transform="translate(378.09,123.47)"/><path fill="#1F77B4" fill-opacity="1" stroke-width="0" d="M3.5,0A3.5,3.5 0 1,1 0,-3.5A3.5,3.5 0 0,1 3.5,0Z" class="point" opacity="1" transform="translate(391.76,128.03)"/><path fill="#1F77B4" fill-opacity="1" stroke-width="0" d="M3.5,0A3.5,3.5 0 1,1 0,-3.5A3.5,3.5 0 0,1 3.5,0Z" class="point" opacity="1" transform="translate(398.59,129.68)"/><path fill="#1F77B4" fill-opacity="1" stroke-width="0" d="M3.5,0A3.5,3.5 0 1,1 0,-3.5A3.5,3.5 0 0,1 3.5,0Z" class="point" opacity="1" transform="translate(405.43,128.06)"/><path fill="#1F77B4" fill-opacity="1" stroke-width="0" d="M3.5,0A3.5,3.5 0 1,1 0,-3.5A3.5,3.5 0 0,1 3.5,0Z" class="point" opacity="1" transform="translate(412.26,166.67)"/><path fill="#1F77B4" fill-opacity="1" stroke-width="0" d="M3.5,0A3.5,3.5 0 1,1 0,-3.5A3.5,3.5 0 0,1 3.5,0Z" class="point" opacity="1" transform="translate(425.93,121.43)"/><path fill="#1F77B4" fill-opacity="1" stroke-width="0" d="M3.5,0A3.5,3.5 0 1,1 0,-3.5A3.5,3.5 0 0,1 3.5,0Z" class="point" opacity="1" transform="translate(432.77,140.12)"/><path fill="#1F77B4" fill-opacity="1" stroke-width="0" d="M3.5,0A3.5,3.5 0 1,1 0,-3.5A3.5,3.5 0 0,1 3.5,0Z" class="point" opacity="1" transform="translate(446.44,178.06)"/><path fill="#1F77B4" fill-opacity="1" stroke-width="0" d="M3.5,0A3.5,3.5 0 1,1 0,-3.5A3.5,3.5 0 0,1 3.5,0Z" class="point" opacity="1" transform="translate(453.27,45.17)"/><path fill="#1F77B4" fill-opacity="1" stroke-width="0" d="M3.5,0A3.5,3.5 0 1,1 0,-3.5A3.5,3.5 0 0,1 3.5,0Z" class="point" opacity="1" transform="translate(466.94,73.38)"/><path fill="#1F77B4" fill-opacity="1" stroke-width="0" d="M3.5,0A3.5,3.5 0 1,1 0,-3.5A3.5,3.5 0 0,1 3.5,0Z" class="point" opacity="1" transform="translate(473.77,106.99)"/><path fill="#1F77B4" fill-opacity="1" stroke-width="0" d="M3.5,0A3.5,3.5 0 1,1 0,-3.5A3.5,3.5 0 0,1 3.5,0Z" class="point" opacity="1" transform="translate(480.61,55.46)"/><path fill="#1F77B4" fill-opacity="1" stroke-width="0" d="M3.5,0A3.5,3.5 0 1,1 0,-3.5A3.5,3.5 0 0,1 3.5,0Z" class="point" opacity="1" transform="translate(487.44,112)"/><path fill="#1F77B4" fill-opacity="1" stroke-width="0" d="M3.5,0A3.5,3.5 0 1,1 0,-3.5A3.5,3.5 0 0,1 3.5,0Z" class="point" opacity="1" transform="translate(494.28,67.93)"/><path fill="#1F77B4" fill-opacity="1" stroke-width="0" d="M3.5,0A3.5,3.5 0 1,1 0,-3.5A3.5,3.5 0 0,1 3.5,0Z" class="point" opacity="1" transform="translate(501.11,135.33)"/><path fill="#1F77B4" fill-opacity="1" stroke-width="0" d="M3.5,0A3.5,3.5 0 1,1 0,-3.5A3.5,3.5 0 0,1 3.5,0Z" class="point" opacity="1" transform="translate(507.94,72.12)"/><path fill="#1F77B4" fill-opacity="1" stroke-width="0" d="M3.5,0A3.5,3.5 0 1,1 0,-3.5A3.5,3.5 0 0,1 3.5,0Z" class="point" opacity="1" transform="translate(514.78,57.37)"/><path fill="#1F77B4" fill-opacity="1" stroke-width="0" d="M3.5,0A3.5,3.5 0 1,1 0,-3.5A3.5,3.5 0 0,1 3.5,0Z" class="point" opacity="1" transform="translate(528.45,27)"/><path fill="#1F77B4" fill-opacity="1" stroke-width="0" d="M3.5,0A3.5,3.5 0 1,1 0,-3.5A3.5,3.5 0 0,1 3.5,0Z" class="point" opacity="1" transform="translate(535.28,39.55)"/><path fill="#1F77B4" fill-opacity="1" stroke-width="0" d="M3.5,0A3.5,3.5 0 1,1 0,-3.5A3.5,3.5 0 0,1 3.5,0Z" class="point" opacity="1" transform="translate(548.95,148.39)"/><path fill="#1F77B4" fill-opacity="1" stroke-width="0" d="M3.5,0A3.5,3.5 0 1,1 0,-3.5A3.5,3.5 0 0,1 3.5,0Z" class="point" opacity="1" transform="translate(562.62,25.38)"/><path fill="#1F77B4" fill-opacity="1" stroke-width="0" d="M3.5,0A3.5,3.5 0 1,1 0,-3.5A3.5,3.5 0 0,1 3.5,0Z" class="point" opacity="1" transform="translate(603.63,56.3)"/></g></g><g stroke-miterlimit="2" class="trace scatter trace53ebd1" opacity="1"><path fill="none" stroke="#1F77B4" stroke-opacity="1" stroke-width="2" d="M36.38,344.18L603.63,23.9" class="js-line" opacity="1" vector-effect="non-scaling-stroke"/></g></g></g><path fill="none" d="M0,0" class="xlines-above crisp"/><path fill="none" d="M0,0" class="ylines-above crisp"/><g class="xaxislayer-above"><g class="xtick"><text style="white-space:pre" x="0" y="533" fill="#444" fill-opacity="1" font-family="TOBESTRIPPEDOpen SansTOBESTRIPPED, verdana, arial, sans-serif" font-size="12" text-anchor="middle" transform="translate(116.38,0)">0</text></g><g class="xtick"><text style="white-space:pre" x="0" y="533" fill="#444" fill-opacity="1" font-family="TOBESTRIPPEDOpen SansTOBESTRIPPED, verdana, arial, sans-serif" font-size="12" text-anchor="middle" transform="translate(253.06,0)">20</text></g><g class="xtick"><text style="white-space:pre" x="0" y="533" fill="#444" fill-opacity="1" font-family="TOBESTRIPPEDOpen SansTOBESTRIPPED, verdana, arial, sans-serif" font-size="12" text-anchor="middle" transform="translate(389.75,0)">40</text></g><g class="xtick"><text style="white-space:pre" x="0" y="533" fill="#444" fill-opacity="1" font-family="TOBESTRIPPEDOpen SansTOBESTRIPPED, verdana, arial, sans-serif" font-size="12" text-anchor="middle" transform="translate(526.44,0)">60</text></g><g class="xtick"><text style="white-space:pre" x="0" y="533" fill="#444" fill-opacity="1" font-family="TOBESTRIPPEDOpen SansTOBESTRIPPED, verdana, arial, sans-serif" font-size="12" text-anchor="middle" transform="translate(663.12,0)">80</text></g></g><g class="yaxislayer-above"><g class="ytick"><text style="white-space:pre" x="79" y="4.2" fill="#444" fill-opacity="1" font-family="TOBESTRIPPEDOpen SansTOBESTRIPPED, verdana, arial, sans-serif" font-size="12" text-anchor="end" transform="translate(0,507.91)">1.5</text></g><g class="ytick"><text style="white-space:pre" x="79" y="4.2" fill="#444" fill-opacity="1" font-family="TOBESTRIPPEDOpen SansTOBESTRIPPED, verdana, arial, sans-serif" font-size="12" text-anchor="end" transform="translate(0,431.38)">2</text></g><g class="ytick"><text style="white-space:pre" x="79" y="4.2" fill="#444" fill-opacity="1" font-family="TOBESTRIPPEDOpen SansTOBESTRIPPED, verdana, arial, sans-serif" font-size="12" text-anchor="end" transform="translate(0,354.85)">2.5</text></g><g class="ytick"><text style="white-space:pre" x="79" y="4.2" fill="#444" fill-opacity="1" font-family="TOBESTRIPPEDOpen SansTOBESTRIPPED, verdana, arial, sans-serif" font-size="12" text-anchor="end" transform="translate(0,278.33000000000004)">3</text></g><g class="ytick"><text style="white-space:pre" x="79" y="4.2" fill="#444" fill-opacity="1" font-family="TOBESTRIPPEDOpen SansTOBESTRIPPED, verdana, arial, sans-serif" font-size="12" text-anchor="end" transform="translate(0,201.8)">3.5</text></g><g class="ytick"><text style="white-space:pre" x="79" y="4.2" fill="#444" fill-opacity="1" font-family="TOBESTRIPPEDOpen SansTOBESTRIPPED, verdana, arial, sans-serif" font-size="12" text-anchor="end" transform="translate(0,125.27)">4</text></g></g></g></g><g class="infolayer"><g class="g-gtitle"><text x="400" y="50" fill="#444" class="gtitle" font-family="TOBESTRIPPEDOpen SansTOBESTRIPPED, verdana, arial, sans-serif" font-size="17" font-weight="normal" opacity="1" text-anchor="middle" style="white-space:pre">Relationship between number of trackers and log of average page latency</text></g><g class="g-xtitle"><text x="400" y="572" fill="#444" class="xtitle" font-family="TOBESTRIPPEDOpen SansTOBESTRIPPED, verdana, arial, sans-serif" font-size="14" font-weight="normal" opacity="1" text-anchor="middle" style="white-space:pre">Number of trackers</text></g><g class="g-ytitle"><text x="42" y="310" fill="#444" class="ytitle" font-family="TOBESTRIPPEDOpen SansTOBESTRIPPED, verdana, arial, sans-serif" font-size="14" font-weight="normal" opacity="1" text-anchor="middle" transform="rotate(-90,42,310)" style="white-space:pre">Ln(Average page load (sec))</text></g></g></svg>